<?xml version="1.0" encoding="utf-8"?>
<!-- Generator: Adobe Illustrator 21.0.0, SVG Export Plug-In . SVG Version: 6.00 Build 0)  -->
<svg version="1.1" id="Atomicbomb_1" xmlns="http://www.w3.org/2000/svg" xmlns:xlink="http://www.w3.org/1999/xlink" 
	 x="0px" y="0px"
	 width="77.8px"
	 height="200px"
	 viewBox="0 0 77.8 200" enable-background="new 0 0 77.8 200" xml:space="preserve">
<g id="Atomicbomb.svg">
	<g>
		<g>
			<path fill="#464D57" d="M38.9,163.5v36.2h-1.7c-2.1,0-3.7-1.7-3.7-3.7v-2.5c-3.4-0.9-6.7-2.5-9.8-4.9c-2.5-1.9-4.8-4.2-7-7
				c-3.9-4.9-7.3-11-9.9-18.1H38.9z"/>
			<path fill="#464D57" d="M38.9,0.2v155.4H4.2c-2.7-9.6-4.2-20.5-4.2-32c0-22.5,5.8-42.6,14.9-55.5V26.5L2.7,17.3v-17h17.4v10.3h13
				V0.2H38.9z"/>
			<path fill="#353847" d="M77.8,123.7c0,11.5-1.5,22.4-4.2,32H38.9V0.2h5.8v10.3h13V0.2h17.4v17l-12.2,9.2v41.7
				C72,81.1,77.8,101.2,77.8,123.7z"/>
			<path fill="#464D57" d="M6.8,163.5c-0.9-2.5-1.8-5.1-2.5-7.8L6.8,163.5z"/>
			<path fill="#464D57" d="M71,163.5c0.9-2.5,1.8-5.1,2.6-7.8L71,163.5z"/>
			<path fill="#353847" d="M38.9,199.8h1.7c2,0,3.7-1.7,3.7-3.7v-2.5c11.1-2.8,20.7-14,26.7-30H38.9V199.8z"/>
			<polygon fill="#CEE4EC" points="4.2,155.7 4.2,155.7 4.2,155.7 			"/>
			<path fill="#CEE4EC" d="M71,163.5L71,163.5C71,163.5,71,163.5,71,163.5L71,163.5z"/>
			<path fill="#CEE4EC" d="M73.6,155.7L73.6,155.7C73.6,155.7,73.6,155.7,73.6,155.7L73.6,155.7z"/>
			<path fill="#CEE4EC" d="M73.6,155.7H38.9v7.9H71c0,0,0,0,0-0.1L73.6,155.7C73.6,155.7,73.6,155.7,73.6,155.7z"/>
			<path fill="#CEE4EC" d="M38.9,155.7v7.9H6.8c0,0,0,0,0,0l-2.5-7.8H38.9z"/>
			<g>
				<path fill="#CEE4EC" d="M28.3,106.7c-4.2,5.9-2.9,14,3,18.2c2.3,1.7,5,2.5,7.6,2.5v-26.1C34.9,101.3,30.9,103.2,28.3,106.7z"/>
				<path fill="#CEE4EC" d="M46.6,103.8c-2.3-1.7-5-2.5-7.6-2.5v26.1c4.1,0,8.1-1.9,10.6-5.4C53.8,116.2,52.4,108,46.6,103.8z"/>
			</g>
			
				<ellipse transform="matrix(0.5849 -0.8111 0.8111 0.5849 -76.7177 79.192)" fill="#EF8885" cx="39" cy="114.5" rx="1.9" ry="1.9"/>
			<polygon fill="#EF8885" points="27.7,112.4 35.5,113.9 36.6,112.1 32.1,105.3 			"/>
			<polygon fill="#EF8885" points="42.8,124.8 40.1,117.8 38,117.9 35.2,124.7 			"/>
			<polygon fill="#EF8885" points="45.3,104.9 41.1,111.9 42.2,113.7 50.1,112.5 			"/>
		</g>
	</g>
</g>
</svg>
