<?xml version="1.0" encoding="utf-8"?>
<!-- Generator: Adobe Illustrator 21.0.0, SVG Export Plug-In . SVG Version: 6.00 Build 0)  -->
<svg version="1.1" id="Bomb_1" xmlns="http://www.w3.org/2000/svg" xmlns:xlink="http://www.w3.org/1999/xlink" 
	 x="0px" y="0px"
	 width="146px"
	 height="200px"
	 viewBox="0 0 146 200" enable-background="new 0 0 146 200" xml:space="preserve">
<g id="Bomb.svg">
<path fill="#695223" d="M83.7,33.2l-3-5.4C75,30.6,71.1,36,69.3,43.5c-1.5,6.2-1,11.6-1,11.9c0.1,1.6,1.5,2.8,3.1,2.8
	c0.1,0,0.2,0,0.3,0c1.7-0.2,3-1.7,2.8-3.4C74.4,54.6,73.1,38.3,83.7,33.2z"/>
<path fill="#886C27" d="M71.6,54.1l2.8,0.9c0-0.1,0-0.2,0-0.2c0-0.2-1.3-16.5,9.3-21.6l-2-3.6C70.2,39.4,71.6,54.1,71.6,54.1z"/>
<path fill="#EABE21" d="M87.8,10.9c3.3,0,7.5-10.9,7.5-10.9s-3,11.3-0.4,13.2s12.4-4.4,12.4-4.4s-9.1,7.3-8.1,10.5
	c1,3.1,12.7,3.7,12.7,3.7s-11.7,0.6-12.7,3.7c-1,3.1,8.1,10.5,8.1,10.5s-9.8-6.4-12.4-4.4S95.2,46,95.2,46s-4.2-10.9-7.5-10.9
	c-3.3,0-7.5,10.9-7.5,10.9s3-11.3,0.4-13.2c-2.7-1.9-12.4,4.4-12.4,4.4s9.1-7.3,8.1-10.5c-1-3.1-12.7-3.7-12.7-3.7
	s11.7-0.6,12.7-3.7c1-3.1-8.1-10.5-8.1-10.5s9.8,6.4,12.4,4.4C83.3,11.3,80.3,0,80.3,0S84.5,10.9,87.8,10.9z"/>
<path fill="#2D3D4F" d="M94.7,57.4v-7.2c0-1.3-0.9-2.4-2.2-2.4H53.8c-1.3,0-2.7,1-2.7,2.4v7.2C21.7,66.6,0,94.3,0,127
	c0,40.3,32.7,73,73,73s72.9-32.7,72.9-73C146,94.3,124.5,66.6,94.7,57.4z"/>
<path fill="#728BA1" d="M48.6,188c-0.4,0-0.8-0.1-1.1-0.2C23,177.4,7.2,153.6,7.2,127c0-1.6,1.3-2.9,2.9-2.9s2.9,1.3,2.9,2.9
	c0,24.2,14.4,45.9,36.7,55.4c1.5,0.6,2.2,2.3,1.5,3.8C50.8,187.3,49.8,188,48.6,188z"/>
</g>
</svg>
