<?xml version="1.0" encoding="utf-8"?>
<!-- Generator: Adobe Illustrator 21.0.0, SVG Export Plug-In . SVG Version: 6.00 Build 0)  -->
<svg version="1.1" id="Layer_1" xmlns="http://www.w3.org/2000/svg" xmlns:xlink="http://www.w3.org/1999/xlink" x="0px" y="0px"
	width="165.2px"
	height="300px"
	 viewBox="0 0 165.2 300" enable-background="new 0 0 165.2 300" xml:space="preserve">
<g id="Boy.svg">
	<ellipse fill="none" stroke="#3A5877" stroke-miterlimit="10" cx="128.1" cy="53.5" rx="3" ry="8.9"/>
	<g>
		<path fill="#DDA37E" d="M84.8,198.1c-3.5,0.8-5.5-1.4-7-4.8c-7.8-18.3-6.3-35.2-3.1-52c0.6-3.3,1.3-6.8,1.8-10.1
			c0.7-4.2,4.6-7,8.7-6.3c4.2,0.7,7,4.6,6.3,8.7c-0.6,3.6-1.2,7.1-1.9,10.5c-2.8,15.2-5.5,29.5,0.5,43.6c1.7,3.9-0.1,8.4-4,10
			C85.7,197.8,85.3,198,84.8,198.1z"/>
		<path fill="#DDA37E" d="M89.8,183.3c1.9,1.2,9.9,8.7,11.5,10.4c1.2,1.3,0.7,3.2-1.4,3.3c-1.7,0-3.4-1.6-5-2.1
			c1.1,2.5,2,5.3,3.3,7.8c0.8,1.5,1.2,5.6-1.5,4.2c-2.4-1.2-3.2-4.2-5-6.1c0.4,1.9,2.9,7.5,0.1,8.6c-2.4,0.9-4.7-4.4-5.3-6.1
			c0.9,1.6,2.4,9.3-1.2,7.9c-1.8-0.7-2.7-2.7-3.3-4.4c-0.5-1.3-1.3-3.6-1.1-5c0,1.7,0.4,9.3-2.9,5.7c-4.3-4.7-3.2-14-2.7-19.9
			C75.8,183.3,83.7,179.4,89.8,183.3z"/>
		<path fill="#436087" d="M70.4,139.5c2.3-10.7,3.6-24.7,17.9-21.7c14.3,3,7.5,25.6,7.5,25.6S81.3,143.8,70.4,139.5z"/>
	</g>
	<g>
		<g>
			<path fill="#DDA37E" d="M96.8,198.1l-18.1,16.4c0.2,0.1,27.5,12.9,37.9,50.7l17.2-13.2c-5-15.3-11.9-28.4-20.5-38.9
				C104.9,202.6,97.6,198.5,96.8,198.1z"/>
			<g>
				<polygon fill="#D9ECF9" points="114,260.6 132.4,246.4 137.9,264.8 121.5,279.2 				"/>
				<g>
					<path fill="#D37945" d="M133.5,258.1c0.1-2.1,0.4-3.9,1-4.5c1.5-1.5,3.8,6.2,3.8,6.2s29.8-9.2,26.6-4.3
						c-9.1,14.1-38.2,35-38.2,35c-9.7-4.8-9.5-21.8-9.5-21.8S121.7,269.2,133.5,258.1z"/>
					<g>
						<g>
							<path fill="#EBBC83" d="M139.8,258.5c-0.3,1.8-0.4,3.6,0,5.3c0.2,0.8,1.4,0.5,1.2-0.3c-0.4-1.6-0.3-3.1,0-4.7
								C141.1,258,139.9,257.7,139.8,258.5L139.8,258.5z"/>
						</g>
					</g>
					<g>
						<g>
							<path fill="#EBBC83" d="M144.1,257c-0.3,1.8-0.4,3.5,0,5.3c0.2,0.8,1.4,0.5,1.2-0.3c-0.4-1.6-0.3-3.1,0-4.7
								C145.4,256.5,144.2,256.2,144.1,257L144.1,257z"/>
						</g>
					</g>
					<g>
						<g>
							<path fill="#EBBC83" d="M148.4,255.5c-0.3,1.8-0.4,3.5,0,5.3c0.2,0.8,1.4,0.5,1.2-0.3c-0.4-1.6-0.3-3.1,0-4.7
								C149.7,255,148.5,254.7,148.4,255.5L148.4,255.5z"/>
						</g>
					</g>
					<g>
						<g>
							<path fill="#EBBC83" d="M152.1,254.5c-0.2,1.6-0.3,3.1,0,4.7c0.2,0.8,1.4,0.5,1.2-0.3c-0.3-1.3-0.2-2.7,0-4
								C153.5,254,152.3,253.7,152.1,254.5L152.1,254.5z"/>
						</g>
					</g>
				</g>
			</g>
			<g>
				<path fill="#3A5877" d="M60,208.9c6.8,11.8,31.7,25.7,39.9,36.5c8.9-4.5,21.2-13.7,26.7-22.3c0,0-17.3-30-31.2-47.4L60,208.9z"
					/>
			</g>
		</g>
		<path fill="#436087" d="M81.2,216.6c0,0,23.5-8.2,23.5-30.1H83.5L81.2,216.6z"/>
		<g>
			<path fill="#DDA37E" d="M71.6,211.1l-23.9-5.1c0,0.2,5.6,29.8-19,60.4l20.8,6.3c9.5-13.1,16.1-26.2,19.6-39.3
				C72.7,220.3,71.8,212,71.6,211.1z"/>
			<g>
				<polygon fill="#D9ECF9" points="31,261.5 53.2,268.2 41.6,283.4 20.2,278.5 				"/>
				<g>
					<path fill="#D37945" d="M44.4,276c1.8-1.1,3.4-2,4.2-1.8c2.1,0.3-2.8,6.7-2.8,6.7s24.8,18.8,19,19.1
						c-16.7,0.9-50.7-10.6-50.7-10.6c-1.8-10.7,12.2-20.5,12.2-20.5S28.5,272.8,44.4,276z"/>
					<g>
						<g>
							<path fill="#EBBC83" d="M47.7,281.3c-1.6,0.8-3,1.7-4.2,3.1c-0.5,0.6,0.4,1.5,0.9,0.9c1.1-1.3,2.4-2.1,3.9-2.9
								C49,282,48.4,280.9,47.7,281.3L47.7,281.3z"/>
						</g>
					</g>
					<g>
						<g>
							<path fill="#EBBC83" d="M51.4,283.9c-1.6,0.8-3,1.7-4.2,3.1c-0.5,0.6,0.4,1.5,0.9,0.9c1.1-1.3,2.4-2.1,3.9-2.9
								C52.8,284.6,52.1,283.5,51.4,283.9L51.4,283.9z"/>
						</g>
					</g>
					<g>
						<g>
							<path fill="#EBBC83" d="M55.1,286.5c-1.5,0.8-3,1.7-4.2,3.1c-0.5,0.6,0.4,1.5,0.9,0.9c1.1-1.3,2.4-2.1,3.9-2.9
								C56.4,287.2,55.8,286.1,55.1,286.5L55.1,286.5z"/>
						</g>
					</g>
					<g>
						<g>
							<path fill="#EBBC83" d="M58.1,289c-1.4,0.7-2.6,1.5-3.7,2.7c-0.5,0.6,0.4,1.5,0.9,0.9c0.9-1.1,2.1-1.8,3.4-2.5
								C59.5,289.7,58.8,288.6,58.1,289L58.1,289z"/>
						</g>
					</g>
				</g>
			</g>
			<g>
				<path fill="#436087" d="M44.7,177c-5.6,12.4-5.9,49.9-9.8,63c8.9,4.6,23.5,9.2,33.7,8.6c0,0,17.8-40.8,23.7-62.3L44.7,177z"/>
			</g>
		</g>
		<g>
			<path fill="#EE7B42" d="M66.9,113.8c-3.2,1.9-13.8,7.6-22.2,28.5c-9.2,22.6-11.5,35.3-11.1,42.1c-25.2,0.2-33.4-11.3-33.4-11.3
				c-1.3-12.8,3-21.5,17.3-46.6c4.9-8.5,11.4-13.3,15.9-15.9c4.5-2.6,36.1,1.3,36.1,1.3L66.9,113.8z"/>
			<path fill="#DC602A" d="M69,112.2c0.7-1.7-8.2,0.1-11.7,2.5c-3.2,1.9-6.8,3.9-14,25.2c-7.9,23.7-8.6,27.2-10.9,44.5
				c3.5,0,13.7-0.1,20.5-3C53,181.4,68,114.5,69,112.2z"/>
		</g>
		<path fill="#F4C045" d="M46.7,109.8c-3.3,2.3-14.2,16.5-21.2,36.1c-7,19.6-9.1,28.7-9.1,28.7S2.3,169.5,0,167.9
			c-2.3-1.6-0.6-9.2,6-22.8c6.6-13.6,14.9-30.4,27.8-35.5C36.8,108.9,43.7,109.6,46.7,109.8z"/>
		<polygon fill="#DDA37E" points="71.3,97.6 64.8,114 89.3,118.6 96.7,100.3 		"/>
		<path fill="#DDA37E" d="M131.5,69.5c0,27.7-21,36.5-48.9,36.5c-23.4,0-50.6-15.6-50.6-43.3C31.9,35,48.8,21,76.3,16.4
			c22-3.7,46.7,12.4,49.2,42.7C125.5,59.1,143.1,58.2,131.5,69.5z"/>
		<path fill="#79C9CF" d="M83.4,198.3c-21.7-0.3-42.7-9.3-42.7-9.3c8.5-20.8,9-41.5,10.7-52.2c1.7-10.7,10.3-22.7,14-24.6
			c0,0,13.2,3.7,24.4,4.9c0,0,14.2,40.8,15.8,69.2c1,1.3,1.6,4.3-1.3,4.8c-2.9,0.5-8.4,4.3-9.3,5.1
			C94.3,196.8,87.1,198.3,83.4,198.3z"/>
		<g>
			<path fill="#3A5877" d="M90.1,134.7c7.2,15.4,12.5,41.5-12.4,45.9c-10.6,1.9-37.5-14.8-37.5-14.8l2.5-6.4
				c50,29,45.7-5.7,41.2-18.9c-8.1-24.2-26.8-23.1-26.8-23.1l4.6-3.4C72.4,114.7,84,121.7,90.1,134.7z"/>
		</g>
		<path fill="none" stroke="#886349" stroke-linecap="round" stroke-linejoin="round" stroke-miterlimit="10" d="M117.9,77.3
			c0,0,4.9,4.9,11.2,4.5"/>
		<path fill="#6C472E" d="M97.9,41.8c4.2-3.4-9-6.8-9-6.8s16.3,5.3,23.4,3.3c7.1-1.9-5.1-6.3-5.1-6.3c4.6,2.1,14.8,3.8,16.3,0.7
			c-0.1-4.6-7.3-9.3-11.2-11c3.2,0.1,6.3,0,9.5,0.1c-8.2-8.5-21.6-7.8-31.8-5.1c0.8-0.5,1.9-1.6,2.7-2.1C82.3,10.9,64,15.1,56.7,23
			c1.5-4.6,8.3-9,7.9-13.9c-6.6-1-24.4,13-29.1,23.3c-9.3-0.9-12.2,7.3-12.2,7.3c1.9-0.9,4.8-2.9,7-2.5c-1.5,1.6-3.1,2.8-4.1,5
			c-2,4.4-2.9,9.6-2.5,14.4c0.6-1.8,2.9-7.2,4.7-7.5c0,0.9-0.6,1.8-0.9,2.7c-0.8,2.2-0.9,4.4-1.1,6.7c-0.5,5.2-0.9,10.7,1.6,15.6
			c0-3.3,0.6-6.9,2.3-9.7c0,0-3.1,17.1,11.8,28.5c7.5,5.7,24,11.2,24,11.2c6.8-5.2,14-13.8,12.6-24.3c-0.3-2.2-1.2-10.6-1.2-10.6
			h8.8c0,0,5.5-13.3-0.7-24.7C85.6,44.5,94.7,44.4,97.9,41.8z"/>
		<g>
			<circle fill="#886349" cx="111.5" cy="59.1" r="2.6"/>
			<path fill="none" stroke="#886349" stroke-linecap="round" stroke-linejoin="round" stroke-miterlimit="10" d="M112.9,48.5
				c-1.2,0-2.7,0.1-3.9,0.5c-1.4,0.5-2.8,1.2-4,2.1c-0.6,0.5-1,1.1-1.6,1.6"/>
		</g>
	</g>
	<g>
		<path fill="#DDA37E" d="M82.2,69.2c-6.7-3.8-14-3.1-15.8,5.4c-1.1,4.9,0.4,9.6,5.2,11.8c2.2,1.1,5.8,2.1,7.9,0"/>
	</g>
	<g>
		<g>
			<path fill="#DDA37E" d="M113.1,190.1c0,0,4-0.6,2.3-7.4c1.4,2,0.2,4.2,1.2,6.2c4.1-1.7,2.2-6.8,1.8-9c0.7,1,1,2.9,1.4,4.8
				c2.5-2.6,1.5-5.6,0.7-7.3c0.3,0.5,0.7,1.5,1,2c0.9-2.8-0.3-11-6-13.4c-4.4-1.8-10.8-1.9-15.5-1.8c-1.7,1-8.3,3.3-8.3,3.3
				c-0.1,4,3.2,9.6,7,11.1c3.8,1.4,7.7-0.2,10.7,2.9c1.1,1.2,2.6,3.6,3.1,5.1c0,0-2.3,1.4-2.7,2.7
				C109.2,190.6,111.7,190.6,113.1,190.1z"/>
			<path fill="#DDA37E" d="M111.1,174.1c-0.1-0.2-3.7-5.8-9.6-8.9c-5.9-3-15.7-6.3-23.2-6.7c-0.7-0.8-1.4-5.1-1.9-8.3
				c-0.5-2.8-1-6-1.7-9c-0.3-1.3-0.5-2.6-0.6-3.9c-0.1-1-0.2-2-0.4-2.9c-0.8-4-4.3-6.9-8.3-6.9c-0.5,0-1.1,0.1-1.7,0.2
				c-2.2,0.4-4.1,1.7-5.4,3.6c-1.3,1.9-1.7,4.1-1.3,6.4c0.3,1.5,0.6,3.5,0.8,5.7l0,0.2c1.5,11.6,3.8,29.2,19.3,32.9
				c3.4,0.9,7.2,0.9,10.9,0.9c1.9-0.1,3.7-0.2,5.5-0.4c1.8-0.2,3.4-0.3,4.9-0.3c2,0,3.3,0.3,3.8,0.9c0.7,0.8,1.6,1.2,2.7,1.2
				c2.7,0,5.7-2.8,6-3.1C111.4,175.3,111.4,174.6,111.1,174.1z M64,129c0.5-0.1,0.9-0.1,1.4-0.1c0,0,0,0,0,0
				C64.9,128.9,64.4,129,64,129z M104.9,177.5c-0.1,0-0.1,0-0.2,0C104.8,177.5,104.9,177.5,104.9,177.5
				C105,177.5,104.9,177.5,104.9,177.5z"/>
		</g>
		<path fill="#436087" d="M53.4,145.9c-1.1-10.9-4.1-24.6,10.4-26.2c14.6-1.6,15,22.1,15,22.1S65.1,146.6,53.4,145.9z"/>
	</g>
	<ellipse fill="none" stroke="#3A5877" stroke-miterlimit="10" cx="118.9" cy="56.1" rx="3.7" ry="9.9"/>
	<path fill="none" stroke="#3A5877" stroke-linecap="round" stroke-linejoin="round" stroke-miterlimit="10" d="M122.9,55
		c0,0,1.6-2.7,2.3-1.5"/>
</g>
</svg>
