<?xml version="1.0" encoding="utf-8"?>
<!-- Generator: Adobe Illustrator 21.0.0, SVG Export Plug-In . SVG Version: 6.00 Build 0)  -->
<svg version="1.1" id="ButtonD" xmlns="http://www.w3.org/2000/svg" xmlns:xlink="http://www.w3.org/1999/xlink" x="0px" y="0px"
	 width="80px"
	 height="80px"
	 viewBox="0 0 80 80" style="enable-background:new 0 0 80 80;" xml:space="preserve">

	<g id="ButtonD.svg">
		<g>
			<circle fill="#9E89BF" cx="40" cy="40" r="40"/>
		</g>
		<g>
		</g>
	</g>
<g>
	<path fill="#FFFFFF" d="M22.6,65.7V15.1h17.5c3.9,0,6.9,0.2,9,0.7c2.9,0.7,5.4,1.9,7.4,3.6c2.7,2.3,4.7,5.1,6,8.7c1.3,3.5,2,7.5,2,12
		c0,3.8-0.4,7.3-1.3,10.2c-0.9,3-2.1,5.4-3.5,7.4c-1.4,1.9-2.9,3.5-4.6,4.6c-1.7,1.1-3.7,2-6,2.5c-2.4,0.6-5.1,0.9-8.1,0.9H22.6z
		 M29.3,59.8h10.8c3.3,0,6-0.3,7.9-0.9c1.9-0.6,3.4-1.5,4.5-2.6c1.6-1.6,2.8-3.7,3.7-6.4c0.9-2.7,1.3-5.9,1.3-9.8
		c0-5.3-0.9-9.4-2.6-12.2c-1.7-2.8-3.9-4.8-6.3-5.7c-1.8-0.7-4.7-1-8.7-1H29.3V59.8z"/>
</g>
</svg>
