<?xml version="1.0" encoding="utf-8"?>
<!-- Generator: Adobe Illustrator 23.0.2, SVG Export Plug-In . SVG Version: 6.00 Build 0)  -->
<svg version="1.1" id="objects" xmlns="http://www.w3.org/2000/svg" xmlns:xlink="http://www.w3.org/1999/xlink" x="0px" y="0px"
	width="80px" height="80px"
	 viewBox="0 0 80 80" enable-background="new 0 0 80 80" xml:space="preserve">
<g>
	<g id="ButtonB2.svg">
		<g>
			<circle fill="#9E89BF" cx="40" cy="40" r="40"/>
		</g>
		<g>
		</g>
	</g>
</g>
<g>
	<path fill="#FFFFFF" d="M26.5,63.2V18.7h16.7c3.4,0,6.1,0.5,8.2,1.3c2.1,0.9,3.7,2.3,4.8,4.2c1.2,1.9,1.7,3.8,1.7,5.9
		c0,1.9-0.5,3.7-1.5,5.4c-1,1.7-2.6,3-4.7,4.1c2.7,0.8,4.8,2.1,6.2,4c1.4,1.9,2.2,4.1,2.2,6.7c0,2.1-0.4,4-1.3,5.8
		c-0.9,1.8-2,3.2-3.3,4.1c-1.3,1-2.9,1.7-4.9,2.2c-2,0.5-4.3,0.7-7.2,0.7H26.5z M32.4,37.4H42c2.6,0,4.5-0.2,5.6-0.5
		c1.5-0.4,2.6-1.2,3.4-2.2c0.8-1,1.1-2.3,1.1-3.9c0-1.5-0.4-2.8-1.1-3.9c-0.7-1.1-1.7-1.9-3-2.3c-1.3-0.4-3.6-0.6-6.8-0.6h-8.9V37.4
		z M32.4,57.9h11.1c1.9,0,3.2-0.1,4-0.2c1.4-0.2,2.5-0.6,3.4-1.2c0.9-0.6,1.7-1.4,2.2-2.5c0.6-1.1,0.9-2.3,0.9-3.7
		c0-1.7-0.4-3.1-1.3-4.3c-0.8-1.2-2-2.1-3.5-2.6c-1.5-0.5-3.7-0.7-6.5-0.7H32.4V57.9z"/>
</g>
</svg>
