<?xml version="1.0" encoding="utf-8"?>
<!-- Generator: Adobe Illustrator 21.0.0, SVG Export Plug-In . SVG Version: 6.00 Build 0)  -->
<svg version="1.1" id="ButtonC" xmlns="http://www.w3.org/2000/svg" xmlns:xlink="http://www.w3.org/1999/xlink" x="0px" y="0px"
	 width="80px"
	 height="80px"
	 viewBox="0 0 80 80" style="enable-background:new 0 0 80 80;" xml:space="preserve">


	<g id="ButtonC.svg">
		<g>
			<circle fill="#9E89BF" cx="40" cy="40" r="40"/>
		</g>
		<g>
		</g>
	</g>
<g>
	<path fill="#FFFFFF" d="M55.2,47.9l6.5,1.6c-1.4,5.3-3.8,9.4-7.4,12.2c-3.5,2.8-7.9,4.2-13,4.2c-5.3,0-9.6-1.1-12.9-3.2
		c-3.3-2.2-5.8-5.3-7.6-9.4c-1.7-4.1-2.6-8.5-2.6-13.2c0-5.1,1-9.6,2.9-13.4c2-3.8,4.7-6.7,8.3-8.7c3.6-2,7.6-3,11.9-3
		c4.9,0,9,1.3,12.4,3.8c3.3,2.5,5.7,6,7,10.6L54.5,31c-1.1-3.6-2.8-6.2-5-7.8c-2.2-1.6-4.9-2.4-8.2-2.4c-3.8,0-6.9,0.9-9.5,2.7
		c-2.5,1.8-4.3,4.2-5.3,7.3c-1,3-1.5,6.2-1.5,9.4c0,4.2,0.6,7.8,1.8,10.9c1.2,3.1,3.1,5.4,5.7,7c2.6,1.5,5.3,2.3,8.3,2.3
		c3.6,0,6.7-1,9.2-3.1C52.6,55.1,54.3,52,55.2,47.9z"/>
</g>
</svg>
