<?xml version="1.0" encoding="utf-8"?>
<!-- Generator: Adobe Illustrator 21.0.0, SVG Export Plug-In . SVG Version: 6.00 Build 0)  -->
<svg version="1.1" id="Layer_1" xmlns="http://www.w3.org/2000/svg" xmlns:xlink="http://www.w3.org/1999/xlink" x="0px" y="0px"
	width="330.2px" height="330.2px"
	 viewBox="0 0 330.2 330.2"  xml:space="preserve">
<g id="Cat.svg">
	<path fill-rule="evenodd" clip-rule="evenodd" fill="#EFEFEF" d="M68.5,234.9c5.4,7.2,15.1,12,26.1,12c16.8,0,30.6-11.3,30.6-25.1
		c0-5,0.6-7.3-2.5-11.2c-6.8,7.1-21.9,13.6-36.8,20.8C79.9,233.2,74.1,234.4,68.5,234.9L68.5,234.9z"/>
	<path fill-rule="evenodd" clip-rule="evenodd" fill="#F7F8F8" d="M94,231.6c2.1,2.8,5.9,4.7,10.3,4.7c6.6,0,12.1-4.4,12.1-9.9
		c0-2,0.2-2.9-1-4.4c-2.7,2.8-8.6,5.4-14.5,8.2C98.5,231,96.2,231.4,94,231.6L94,231.6z"/>
	<path fill-rule="evenodd" clip-rule="evenodd" fill="#322B29" d="M218,42.9c76.7,21.8,95.5,77.2,38,109.2
		C227.4,168.1,178.1,31.5,218,42.9L218,42.9z"/>
	<path fill-rule="evenodd" clip-rule="evenodd" fill="#322B29" d="M202.1,91.9c61.9-21.5,99,0.5,106.7,45.7c0.7,8.5,7.4,13.9,5.9,21
		c-5.1,25.4-32,43.4-75.3,44.1C158,204,137,116,202.1,91.9L202.1,91.9z"/>
	<path fill-rule="evenodd" clip-rule="evenodd" fill="#322B29" d="M163,64.5c83.4,8.8,112.8,62.8,59,106.3
		C195.1,192.6,119.6,59.9,163,64.5L163,64.5z"/>
	<path fill-rule="evenodd" clip-rule="evenodd" fill="#FFFFFF" d="M255,115.7c-18.2,1.6-27.5,18.5-25.9,36.6
		c1.6,18.1,8.6,30.6,30.8,27.5c22.1-3.2,31.4-14.8,28.2-33.3C284.9,127.9,273.1,114.1,255,115.7L255,115.7z"/>
	
		<path fill-rule="evenodd" clip-rule="evenodd" fill="none" stroke="#CC7B49" stroke-width="0.9276" stroke-linecap="round" stroke-linejoin="round" stroke-miterlimit="2.4142" d="
		M233.3,135.2c-0.3,1.9-14.4,34.6,11.9,42.2"/>
	<path fill-rule="evenodd" clip-rule="evenodd" fill="#FFFFFF" d="M287.1,143.9c0,0-3.9,14.9-6.4,19.1c-2.5,4.2-29,19.7-38.1,14.7
		c-9.1-5.1-12.1-22.8-11.7-28c0.5-5.1,8.9-19.1,8.9-19.1l11.2-8.2l12.7-2.7l10,3.8l9.2,10.7L287.1,143.9L287.1,143.9z"/>
	<path fill-rule="evenodd" clip-rule="evenodd" fill="#D7DADE" d="M239.9,132.7l-6.2,2.7c0,0-4.1,9.2-2.6,17.5
		c0.4,2.1,1.4,4.7,2.9,8.4l7.2-4.3l3.7-18.4L239.9,132.7L239.9,132.7z"/>
	<path fill-rule="evenodd" clip-rule="evenodd" fill="#742D16" d="M289.1,148.2c0,0-0.1-0.5-0.3-1.3c-1.1-5.3-4.6-21.7-17.1-29.9
		c-4-2.6-10.3-4.3-16.1-3.4c-21.6,3.3-26.6,21.1-27.5,31.3c0,0,9.7-14.1,26-18.9c13-3.9,21.3,2.8,24.6,6.8
		C285.8,141.2,289.1,148.2,289.1,148.2L289.1,148.2z"/>
	<path fill-rule="evenodd" clip-rule="evenodd" fill="#802772" d="M236.5,154.9c1.6,16,13.7,23.5,27.7,21.8
		c13.9-1.8,24.4-12.1,22.8-28.1c-1.6-15.9-14.1-27.5-28.1-25.7C244.9,124.6,234.9,138.9,236.5,154.9L236.5,154.9z"/>
	<path fill-rule="evenodd" clip-rule="evenodd" fill="none" stroke="#231815" stroke-width="0.1451" stroke-miterlimit="2.4142" d="
		M236.5,154.9c1.6,16,13.7,23.5,27.7,21.8c13.9-1.8,24.4-12.1,22.8-28.1c-1.6-15.9-14.1-27.5-28.1-25.7
		C244.9,124.6,234.9,138.9,236.5,154.9L236.5,154.9z"/>
	<path fill-rule="evenodd" clip-rule="evenodd" fill="#231815" d="M287.5,148.5c-1.5-15.9-13.8-29.2-27.8-27.4
		c-13.9,1.7-24,16.1-22.4,32c0,0.5,0.5,3,0.6,3.5L287.5,148.5L287.5,148.5z"/>
	<path fill-rule="evenodd" clip-rule="evenodd" fill="none" stroke="#231815" stroke-width="0.1451" stroke-miterlimit="2.4142" d="
		M287.5,148.5c-1.5-15.9-13.8-29.2-27.8-27.4c-13.9,1.7-24,16.1-22.4,32c0,0.5,0.5,3,0.6,3.5"/>
	<path fill-rule="evenodd" clip-rule="evenodd" fill="#BF2789" d="M252.5,171.5c0.3,3.1,4.1,5.2,8.6,4.6c4.4-0.6,7.8-3.5,7.5-6.6
		c-0.3-3.1-4.1-5.2-8.6-4.7C255.6,165.4,252.2,168.4,252.5,171.5L252.5,171.5z"/>
	<path fill-rule="evenodd" clip-rule="evenodd" fill="#231815" d="M249.8,154.4c0.8,7.8,6.8,13.5,13.4,12.7
		c6.6-0.8,11.4-7.8,10.6-15.7c-0.8-7.8-6.8-13.5-13.4-12.7C253.8,139.6,249.1,146.6,249.8,154.4L249.8,154.4z"/>
	<path fill-rule="evenodd" clip-rule="evenodd" fill="#FFFFFF" d="M265.1,140c0.5,5.4,4.7,9.4,9.3,8.8c4.6-0.6,7.9-5.4,7.4-10.9
		c-0.5-5.4-4.7-9.4-9.3-8.8C267.9,129.7,264.6,134.6,265.1,140L265.1,140z"/>
	<path fill-rule="evenodd" clip-rule="evenodd" fill="#FFFFFF" d="M283.2,153.1c0.3,1.3,2.1,1.9,3.9,1.3c1.8-0.6,3.1-2.1,2.8-3.4
		c-0.3-1.3-2-1.9-3.9-1.3C284.2,150.3,282.9,151.8,283.2,153.1L283.2,153.1z"/>
	<path fill-rule="evenodd" clip-rule="evenodd" fill="#322B29" d="M96.2,186.8c-4-10.7-16.4-19.1-17.7-31.1
		c-3.2-30.6,30-64.9-12.8-85.6c-39.1-19-57.5,22.3-23.5,24.5c0,0,22.8-3.8,26.6,15.4c2.3,11.3-10.3,37.6-5.6,54.6
		c6,21.4,18.9,28.6,24.6,32.8C91.4,200.1,96.4,193.6,96.2,186.8L96.2,186.8z"/>
	<path fill-rule="evenodd" clip-rule="evenodd" fill="#322B29" d="M233.3,233.3l-4.2,8.1c-9.8,19.1-31.3,3.3-18.8-10.4
		c4.1-4.4-33.4-16.4-30.7-20.1c11.3-15.6,38.8-10.1,50.5,4.2C235.4,221.4,236.9,226.3,233.3,233.3L233.3,233.3z"/>
	<path fill-rule="evenodd" clip-rule="evenodd" fill="#322B29" d="M224.6,164.8c-13.5,28.5-18.8,67-43.1,90.1
		c-2.9,8.4-6,14.6,1.7,14.3c4.5-0.2,10.7,4.5,10.3,11.1c-1.1,7.7-9.8,8.4-19.2,7.1c-19.4-0.9-15.1-15.7-11.9-29.4
		c0.3-7.1,6.9-12.7,7.4-19.7c-10-8.8-20.8-15.9-39.7-7.5c-6.4,3.6-5,9.4-5.3,12.7l12.8,27.6c1.5,4.1,11.3-1.7,14.6,12.5
		c3.4,11.2-20.3,12.6-30,7.4c-6.1-11.1-9.2-32.7-31.5-48.9c-15.6-9.8-25.7-35.3-10.2-54.3c19.8-22.6,49.1-32.4,96.7-5.6
		c4.9,2.8,13.1-17.2,19.7-16.1C212.4,168.4,229.7,155.2,224.6,164.8L224.6,164.8z"/>
	<path fill-rule="evenodd" clip-rule="evenodd" fill="#322B29" d="M61.9,236c-0.2-8.1,19,0.8,26.5-4.3c8.5-5.9-2.3-22.1-3.8-26.3
		c7.2-8.2,50.3,9.5,39.8,14.9c-0.6,0.7-8.9,16.8-27.2,29.3c-6.1,4.2-13.2-3.7-17.6,1.2c-9.7,10.7,8,19,15.9,32.2
		c4,6.8-12.2,11.1-19.6,7.2C66.5,285.1,62.5,265.9,61.9,236L61.9,236z"/>
	<path fill-rule="evenodd" clip-rule="evenodd" fill="#FFFFFF" d="M86.8,272.2c-7.1,1.5-14.6,4.2-20.8,1.5c2.2,8.5,5.5,14.1,10,16.6
		c7.4,4,23.6-0.4,19.6-7.2C93.1,279.1,89.9,275.5,86.8,272.2 M233.3,233.3c0.4-0.8,0.8-1.6,1.1-2.4c-3.8-3.5-8.6-5.7-16-5
		c-3.9,0.4-6.8,1.2-8.9,2.5c1.1,1,1.5,1.9,0.9,2.6c-12.5,13.7,9,29.4,18.8,10.4L233.3,233.3 M178.7,267.4c-6.2,2.1-12.7,3.7-19,4.8
		c-0.5,8.1,2.1,14.4,14.6,15c9.4,1.3,18,0.6,19.2-7.1c0.4-6.6-5.8-11.2-10.3-11.1C180.7,269.2,179.3,268.6,178.7,267.4 M146.5,274.2
		c-3.2,0.4-6.1,0.7-8.7,0.9c-6,0.5-13.8,2.5-21,2.9c2,5,3.6,9.4,5.4,12.9c9.8,5.2,33.4,3.7,30-7.4
		C151.1,278,148.9,275.5,146.5,274.2"/>
	<path fill-rule="evenodd" clip-rule="evenodd" fill="#EFEFEF" d="M86.8,272.2c-7.1,1.5-14.6,4.2-20.8,1.5c2.2,8.5,5.5,14.1,10,16.6
		c7.4,4,23.6-0.4,19.6-7.2C93.1,279.1,89.9,275.5,86.8,272.2 M231.7,228.8c1,0.6,1.8,1.3,2.7,2.1c-0.3,0.8-0.6,1.6-1.1,2.4l-4.2,8.1
		c-6.7,13-18.9,9.8-21.9,2.1c5.8,0.1,12.2-0.3,16.2-5.1C226.5,234.7,229.3,231.8,231.7,228.8 M193.6,279c0,0.4,0,0.8,0,1.2
		c-1.2,7.7-9.8,8.4-19.2,7.1c-12.5-0.6-15.2-6.9-14.6-15c1.7-0.3,3.5-0.7,5.3-1.1c1.3,4.2,5.5,7.1,9,9
		C182,281.6,189,281.3,193.6,279 M152.6,285.6c-0.2,9.1-21.3,10.1-30.3,5.2c-1.9-3.4-3.5-7.9-5.4-12.9c1.8-0.1,3.6-0.3,5.4-0.5
		c1.5,4.9,1.9,11.1,12.4,9.6C140.9,286.2,151,283.8,152.6,285.6"/>
	
		<path fill-rule="evenodd" clip-rule="evenodd" fill="none" stroke="#231815" stroke-width="0.8226" stroke-linecap="round" stroke-linejoin="round" stroke-miterlimit="2.4142" d="
		M218,42.9c41.2,11.7,65.7,33.1,70.6,55.3c10.5,9.3,17.3,22.8,20.2,39.4c0.7,8.5,7.4,13.9,5.9,21c-5.1,25.4-32,43.4-75.3,44.1
		c-10.3,0.2-19.6-1.1-27.8-3.4c-0.4,1.2-0.8,2.4-1.2,3.6c7.8,2.1,15.1,6.4,19.8,12.2c5.2,6.3,6.7,11.3,3.1,18.2l-4.2,8.1
		c-9.8,19.1-31.3,3.3-18.8-10.4c1.5-1.6-2.5-4.2-8.1-7.1c-5.2,11.6-11.6,22.3-20.7,31c-2.9,8.4-6,14.6,1.7,14.3
		c4.5-0.2,10.7,4.5,10.3,11.1c-1.2,7.7-9.8,8.4-19.2,7.1c-19.4-0.9-15.1-15.7-11.9-29.4c0.3-7.1,6.9-12.7,7.4-19.7
		c-10-8.8-20.8-15.9-39.7-7.5c-6.4,3.6-5,9.4-5.3,12.7l12.8,27.6c1.5,4.1,11.3-1.7,14.6,12.5c3.4,11.2-20.3,12.6-30,7.4
		c-5.3-9.7-8.3-27.2-23.6-42.2c-0.5,0.3-1,0.7-1.5,1c-6.1,4.2-13.2-3.7-17.5,1.2c-9.7,10.7,8,19,15.9,32.2c4,6.8-12.2,11.1-19.6,7.2
		c-9.4-5.1-13.4-24.4-14-54.3c-0.1-6.2,10.9-2.5,19.5-2.6c-8.9-11.5-12.4-28.7-2.8-43c-5.5-5-11.7-12.8-15.3-25.7
		c-4.8-16.9,7.9-43.3,5.6-54.6c-3.8-19.2-26.6-15.4-26.6-15.4c-34-2.2-15.7-43.5,23.5-24.5c42.7,20.7,9.6,55,12.8,85.6
		c0.9,8.4,7.3,15.1,12.4,22.1c19.4-14.9,46.4-18.1,86.3,4.3c1,0.5,2.1,0.2,3.3-0.7c-15.6-15.7-20.7-37.5-13.8-56.4
		c-17.2-30.1-25.6-62.8-3.7-60.5c15.8,1.7,29.7,5,41.4,9.5C200.9,53.8,203.7,38.8,218,42.9L218,42.9z"/>
	<path fill-rule="evenodd" clip-rule="evenodd" fill="#231815" d="M163.2,69.3c6.5,3,13,5.9,19.6,8.6c7.8,3.3,15.7,6.4,23.5,9.9
		c2.4,1.1,4.6,2.3,6.9,3.6l1.9,1.3l1.7,1.4l1.6,1.5l1.4,1.6l1.1,1.8l0.9,1.9l0.6,2l0.3,2.1l0,2.2l-0.2,2.3l-0.4,2.3l-1.4,5
		c-1,3-2.2,5.9-3.4,8.8l-3.2,7l-1.9,3.3l-2.3,2.8l-2.7,2l-3,1.2l-3.2,0.4l-3.2-0.4l-3.1-1l-3-1.5l-2.9-1.9l-2.9-2.2l-2.8-2.6
		l-2.8-2.8l-2.7-3.1l-2.6-3.3l-2.6-3.5l-4.8-7.3l-4.3-7.5L160,98l-1.5-3.6l-1.3-3.5l-1.1-3.3l-0.8-3.1l-0.5-3l-0.2-2.8l0.2-2.7
		l0.8-2.6l1.7-2.3l2.6-1.5L163.2,69.3L163.2,69.3z"/>
	<path fill-rule="evenodd" clip-rule="evenodd" fill="#EA7980" d="M162.6,73.2c55.6,25.8,66.5,18.5,48.2,57.7
		C194.7,165.3,143.2,72.1,162.6,73.2L162.6,73.2z"/>
	<path fill-rule="evenodd" clip-rule="evenodd" fill="#F5B2B2" d="M194.7,136.8c-18.3-9.4-41.3-53.3-35.5-62.1
		c50.3,22.5,59.8,17.2,42.2,55C199.6,133.6,197.3,135.8,194.7,136.8L194.7,136.8z"/>
</g>
</svg>
