<?xml version="1.0" encoding="utf-8"?>
<!-- Generator: Adobe Illustrator 21.0.0, SVG Export Plug-In . SVG Version: 6.00 Build 0)  -->
<svg version="1.1" id="Crab_1" xmlns="http://www.w3.org/2000/svg" xmlns:xlink="http://www.w3.org/1999/xlink" 
	 x="0px" y="0px"
	 width="200px"
	 height="200px"
	 viewBox="0 0 200 200" enable-background="new 0 0 200 200" xml:space="preserve">
<g id="Crab.svg">
	<path fill="#CE2828" d="M75.6,73.9c0.3,1.6,0.5,3,1.2,4.5c0.7,1.6,1.5,3,2.4,4.4c0.9,1.3,1.8,2.7,2.9,3.8c1.1,1.1,2.3,1.6,3.9,1.9
		c0.5,0.1,1-0.5,1-1c-0.1-1.4-0.4-2.5-1.2-3.7c-0.9-1.3-1.9-2.5-2.8-3.8c-0.8-1.2-1.7-2.5-2.5-3.7c-0.9-1.3-1.8-2.4-2.8-3.6
		C76.9,71.4,75.4,72.8,75.6,73.9L75.6,73.9z"/>
	<path fill="#CE2828" d="M119,69.3c-1.6,2.5-2,6-2.5,8.9c-0.3,2-1.6,7.2,1.6,7.6c3,0.4,3.3-4.6,3.6-6.5c0.5-3,1.3-6.5,0.6-9.6
		C122,68.1,119.8,68,119,69.3L119,69.3z"/>
	<path fill="#CE2828" d="M44.4,74.1c0.5-1.3,0.4-2.6-0.3-3.9c-0.9-1.6-3-0.4-2.7,1.1c0.7,3.7,2.8,7.2,4.6,10.4
		c1.9,3.3,4.2,6.5,6.8,9.3c4.7,5.2,10.8,9.3,17.7,11.1c0-2.1,0-4.1,0-6.2c-6.5,1.4-13.7-3.1-18.4-7.2c-2.5-2.1-4.7-4.5-6.6-7.2
		c-1.6-2.3-4.4-5.7-3.2-8.7c-1.6,0.7-3.2,1.3-4.8,2c1.8,1.1,2.2,3.2,2.5,5.2c0.2,1.2,1.6,2.1,2.7,2.1c1.3,0,2.3-0.9,2.7-2.1
		c1.6-4.2-1-8.6-4.6-10.8c-2-1.2-4.1,0.1-4.8,2c-1.8,4.5,0.8,9.2,3.3,12.9c2.3,3.4,5.1,6.6,8.2,9.3c6.7,5.7,15.7,10.9,24.7,8.8
		c3.1-0.7,3-5.4,0-6.2c-6.1-1.5-11.1-5.2-15.3-9.7c-2.3-2.4-4.3-5.1-6.3-7.8c-2.1-2.8-4-6.2-6.7-8.5c-0.5,0.8-1,1.7-1.5,2.5
		c0.8,0.3,1.3,0.8,1.4,1.7C44,74.4,44.3,74.4,44.4,74.1L44.4,74.1z"/>
	<path fill="#CE2828" d="M141.2,108.1c1.6,1.1,3.5,0.6,5.2,0.1c1.9-0.5,3.5-1.6,4.9-2.8c3-2.6,5.2-6.2,7.3-9.6
		c4.2-7.1,7.2-15.1,9.2-23.1c1-4.1-5.1-5.8-6.3-1.7c-2,6.8-3.7,13.9-6.2,20.5c-1.9,5-5.2,10.5-10.5,12.6c0.9,2,1.7,4.1,2.6,6.1
		c6.7-4.5,13.2-9.6,17.8-16.3c4.4-6.5,7-15.2,5-23c-0.5-2.1-3.2-3.2-5-2c-2,1.3-2.8,3.1-2.2,5.5c0.7,2.5,3.7,2.4,5,0.7
		c-0.4,0.5,0.5-0.2,0.6-0.2c-1.7-0.7-3.3-1.4-5-2c2.4,14.1-9.1,24.5-19.6,31.7c-1.4,0.9-2.1,2.6-1.4,4.2c0.6,1.4,2.4,2.6,3.9,1.9
		c6.7-2.7,11.3-8.3,14.1-14.9c3.1-7.3,5-15.3,7.2-22.9c-2.1-0.6-4.2-1.2-6.3-1.7c-1.7,7.2-4.4,14.1-7.8,20.6c-1.6,3-3.2,6.2-5.5,8.8
		c-1.1,1.3-2.4,2.4-3.8,3.4c-1.3,1-2.7,1.6-3.6,3C140.6,107.2,140.8,107.8,141.2,108.1L141.2,108.1z"/>
	<path fill="#CE2828" d="M151.3,123.9c10-5.3,22.2-6.4,33-2.9c2.4,0.8,5.3,1.7,7.3,3.3c0.5,0.4,1.3,1.2,1.1,1.9c0,0-0.1,0.2,0,0.1
		c0,0-0.9-0.1-1.2-0.2c-2.7-0.8-5.3-2.1-8-3c-2.8-0.9-5.7-1.7-8.6-2.3c-6.8-1.4-13.8-2-20.8-1.6c1,1.3,1.9,2.5,2.9,3.8
		c-0.2,0.6-0.5,0.3,0.1,0.3c0.5,0,1.1-0.1,1.6-0.2c1.7-0.1,3.4-0.2,5.2-0.2c3.4,0,6.7,0.1,10,0.4c3.2,0.3,6.3,0.8,9.4,1.5
		c1.7,0.4,3.4,0.8,5,1.3c0.8,0.2,1.6,0.4,2.3,0.7c0.5,0.2,0.9,0.5,0.3-0.2c-0.3-0.6-0.4-0.7-0.4-0.3c0.1,0.4,0.1,0.2,0-0.5
		c0.2-0.4,0.4-0.7,0.6-1.1c-0.1,0.1-0.1,0.1-0.2,0.2c-1.1,0.9-0.9,3.1,0.5,3.7c2.2,1,4.8-0.2,5-2.8c0.2-2.7-2-4.1-4.3-4.8
		c-4.8-1.5-9.8-2.5-14.8-3.2c-4.8-0.6-9.7-0.9-14.6-0.8c-4,0.1-10.4-0.3-11.8,4.5c-0.5,1.8,0.9,3.9,2.9,3.8
		c7.1-0.4,14.3,0.1,21.2,1.8c3.5,0.8,6.8,1.9,10.2,3.1c3,1.2,6.3,3.1,9.6,1.6c3.2-1.4,4.2-5.2,3-8.3c-1.2-3.2-4.4-4.9-7.3-6.2
		c-6.3-2.8-13.2-4.1-20.1-3.9c-7.4,0.2-16.4,2-21.5,7.8C147.8,122.6,149.5,124.9,151.3,123.9L151.3,123.9z"/>
	<path fill="#CE2828" d="M151.8,140.9c2.8,0.2,5.5-0.6,8.3-0.5c2.9,0.1,5.8,0.6,8.6,1.2c5.6,1.2,11.1,2.7,16.2,5.3
		c2.1,1.1,5,2.4,6.3,4.5c0.2,0.3,0.3,0.6,0.3,0.9c0,0.2-0.2,0.5-0.1,0.4c0.3-0.2-0.3-0.3-0.6-0.4c-0.7-0.4-1.3-0.9-2-1.4
		c-4.8-3.3-9.9-6-15.3-8.3c-6.1-2.5-12.5-4.3-19-5.3c-0.2,1.8-0.5,3.6-0.7,5.3c7,0.6,14.1,1.6,20.9,3.4c5.6,1.4,10.8,3.5,14.7,7.9
		c1,1.1,2.9,1,3.9,0c1.2-1.2,0.9-2.7,0-3.9c-4-5.1-10.5-7.7-16.6-9.2c-7.5-1.9-15.2-3-22.9-3.6c-3-0.2-3.8,4.9-0.7,5.3
		c6.9,1,13.6,2.9,20,5.6c3.1,1.4,6.1,2.9,9,4.7c1.5,0.9,2.9,1.8,4.3,2.8c1.4,1,2.8,2.1,4.6,2.3c3.4,0.3,5.8-2.6,5.8-5.8
		c0-3.3-2.7-5.6-5.2-7.3c-5.7-3.9-12.4-6.2-19.1-7.6c-3.8-0.8-7.7-1.4-11.6-1.3c-3.4,0.1-7.9,0.6-9.9,3.7
		C150.8,140.2,151.2,140.8,151.8,140.9L151.8,140.9z"/>
	<path fill="#CE2828" d="M149.1,158.4c1.6,0.2,3.3,0.7,5,0.9c1.6,0.2,3.2,0.5,4.9,0.8c3.3,0.6,6.7,1.5,9.8,2.7
		c4.9,1.8,11,4.6,13.5,9.5c0.4,0.9,0.7,1.8,0.8,2.8c0,0.5,0,0.9-0.2,1.4c0,0.1-0.5,0.8-0.5,0.8c0,0,1.1,0.1,1,0.3
		c0,0-0.5-1.3-0.5-1.3c-0.5-1.4-1.1-2.8-1.7-4.1c-2.5-4.8-6.5-8.8-11.1-11.6c-5.3-3.2-11.7-4.7-17.8-4c-4.1,0.5-4.1,5.9,0,6.4
		c10.7,1.3,23,3.1,28.9,13.3c2,3.6,7.3,0.4,5.5-3.2c-6.4-12.6-21.8-14.9-34.4-16.4c0,2.1,0,4.3,0,6.4c5.8-0.7,11.4,0.8,16.2,4.1
		c2.3,1.6,4.4,3.6,5.9,5.9c0.8,1.1,1.5,2.3,2,3.6c0.6,1.5,0.9,3.1,1.8,4.4c2.2,3.3,6.6,3.3,9.2,0.5c2.4-2.6,2.7-6.4,1.7-9.7
		c-2.2-6.8-8.7-10.8-15-13.3c-3.9-1.5-8-2.7-12.1-3.3c-2.2-0.3-4.3-0.5-6.5-0.5c-2.3,0-4.3,0.5-6.5,0.9
		C147.1,155.9,147.7,158.2,149.1,158.4L149.1,158.4z"/>
	<path fill="#CE2828" d="M147.3,170.9c0.6,2,0.9,4.1,0.8,6.2c-0.1,2.1-1.1,4.1-1.1,6.2c0.1,5.3,6.1,6.2,9.6,3.5
		c3.1-2.4,4-6.9,3-10.5c-0.5-1.8-1.5-3.5-3-4.8c-0.8-0.7-3.3-1.8-3.5-2.7c-1.9,0.8-3.8,1.6-5.7,2.4c1,2.3,1.8,4.7,2.4,7.1
		c0.3,1.1,0.5,2.3,0.7,3.5c0.2,1.4,0.2,2.9,1.1,4.1c1.1,1.5,3.8,2.1,4.9,0c1.3-2.7,0.1-6.4-0.6-9.2c-0.7-2.9-1.8-5.8-3-8.5
		c-1.4-3.3-6.6-0.9-5.7,2.4c0.4,1.6,1.4,2.9,2.8,3.9c1,0.7,2.2,1.2,3,2.1c1.2,1.4,1.6,3.9,0.4,5.5c-0.3,0.3-0.7,0.4-0.9,0.7
		c0.1-0.1-0.4,0.5,0.1,0.2c0.2,0.2,0.2,0.2,0.2-0.1c0-0.1,0-0.2,0-0.3c0.1-0.3,0.2-0.7,0.2-1c0.2-0.9,0.4-1.9,0.5-2.8
		c0.4-3.5-0.8-6.9-2.9-9.6C149.3,167.6,146.8,169.3,147.3,170.9L147.3,170.9z"/>
	<path fill="#CE2828" d="M48,168.1c-0.6,1.2-1.4,2.1-1.7,3.4c-0.4,1.2-0.6,2.4-0.8,3.6c-0.5,2.4-1,4.9-0.9,7.4
		c0.1,4.4,2.4,9.9,7.7,9c4.7-0.8,7.1-5.5,6.3-9.9c-0.4-2.3-1.5-4.4-2.6-6.4c-1.1-2-2.1-3.9-1.8-6.2c-2.1,0-4.3,0-6.4,0
		c-0.6,6.3-0.5,12.7,0.4,19c0.2,1.4,1.8,2.3,3.1,2.3c0.3,0,0.6,0,0.8-0.1c1.2-0.4,2.5-1.6,2.3-3.1c-0.7-6.1-0.9-12.1-0.3-18.1
		c0.2-1.7-1.6-3.2-3.2-3.2c-1.9,0-3,1.5-3.2,3.2c-0.5,3.7,1.4,7,3.2,10.2c1.1,2,2.8,4.8,0.6,6.6c-0.2,0.2-0.6,0-0.3,0.1
		c0.2,0.1-0.1-0.2-0.2-0.3c-0.1-0.3-0.3-0.6-0.4-0.9c-0.5-1.6-0.4-3.2-0.3-4.9c0.2-1.9,0.4-3.8,0.5-5.7c0-0.9,0.1-1.9,0-2.8
		c-0.1-1-0.5-1.9-0.7-2.8C50,167.4,48.4,167.2,48,168.1L48,168.1z"/>
	<path fill="#CE2828" d="M39.7,148.4c-2.8,0.5-5.5,2.3-7.8,3.9c-2.5,1.8-4.9,3.8-7.1,6.1c-4.2,4.3-7.5,9.8-8.7,15.7
		c-0.9,4.8-1,12.5,5,13.9c6.6,1.6,9.3-6.3,11.1-11c2.8-7.3,5.7-14.6,8.4-21.9c1.2-3.1-3.1-5-5.2-3c-8.4,8-17.5,17.6-16.7,30.2
		c0.2,3.5,4.9,4.2,6.1,0.8c0.9-2.5,2.1-4.9,2.7-7.5c0.6-2.5,2.3-4.8,3.4-7.2c1-2.1-1.8-4.8-3.5-2.7c-1.8,2.3-3,5-4.7,7.4
		c-1.8,2.5-2.9,5.4-3.9,8.3c2,0.3,4.1,0.5,6.1,0.8c-0.7-10.9,7.7-18.9,14.9-25.8c-1.7-1-3.5-2-5.2-3c-2,5.3-4,10.6-6,15.9
		c-1,2.7-2,5.4-3,8.1c-0.5,1.3-1.2,3.9-2.7,4.6c-2.3,1.1-1.2-7.3-1-8.2c1.1-4.7,3.7-8.8,6.9-12.4c1.9-2.1,4-4,6.1-5.8
		c2.1-1.8,4.4-3.6,5.9-5.9C41.4,149.1,40.5,148.3,39.7,148.4L39.7,148.4z"/>
	<path fill="#CE2828" d="M41.4,133c-3.4-0.6-7,0-10.4,0.6c-3.3,0.6-6.6,1.6-9.8,2.8c-5.7,2.2-11.9,5.3-15.9,10.1
		c-1.9,2.3-3.5,5.1-3.8,8.1c-0.3,3.1,1.3,6.2,4.5,6.9c3.6,0.7,6.3-2.2,8.7-4.4c2.4-2.2,4.9-4.3,7.5-6.3c6.1-4.6,12.6-8.4,19.5-11.7
		c3.3-1.6,0.9-6.2-2.3-5.6c-13.5,2.9-29.2,7.3-35.8,20.8c-1.7,3.4,3.3,6.4,5.1,3c6.5-11.8,20.1-15.3,32.3-17.9
		c-0.8-1.9-1.6-3.7-2.3-5.6c-10.2,4.9-19.7,11.5-28,19.1c-0.9,0.9-1.8,2-3,2.6c-0.2,0.1-0.4,0.2-0.6,0.3c-0.3,0.1,0,0,0,0.1
		c0.2,0.2,0-0.4,0-0.5c0.2-2,1.2-3.9,2.5-5.4c3.4-3.9,8.3-6.4,12.9-8.4c3-1.3,6.1-2.3,9.3-3.1c3.2-0.8,6.5-1.1,9.6-1.9
		C43,136.2,43.3,133.4,41.4,133L41.4,133z"/>
	<path fill="#CE2828" d="M8.9,130.1c4.7-7.8,13.8-11.9,22.7-12.7c9.4-0.9,18.9,1.5,26.6,7.1c0.9-2.1,1.7-4.1,2.6-6.2
		c-10.5-3.1-21.3-5.6-31.8-1.2c-4.5,1.9-8.6,4.6-12.6,7.5c-0.9,0.7-1.8,1.3-2.7,2c-0.5,0.4-1,0.7-1.5,1.1c0,0-1.2,0.7-1.2,0.6
		c0-0.1,0.2,0,0.2,0c0.1,0.1,0.1,0.1,0.2,0.2c0.3,0.2,0.4,0.5,0.3,0.9c0.2,2.7-0.1,0.5,0.1,0.6c0,0,1.1-0.8,1.2-0.9
		c0.6-0.4,1.1-0.7,1.7-1.1c2.4-1.4,4.9-2.6,7.5-3.6c2.7-1,5.7-1.6,8-3.5c1.4-1.2,0.6-3.6-1.1-4c-2.9-0.8-5.9,0.2-8.6,1.2
		c-2.8,1-5.5,2.2-8.1,3.6c-2.5,1.4-5.6,2.9-6.8,5.7c-1.2,3,0.5,6.2,3.6,7.2c2.8,0.9,5.4-0.4,7.7-2c2.2-1.6,4.4-3.3,6.7-4.8
		c4.5-3,9.4-5.7,14.8-6.2c7-0.7,13.9,1.4,20.6,3.3c1.6,0.5,3.4-0.4,4-2c0.7-1.7,0-3.2-1.4-4.2c-8.9-6.4-20.4-9.2-31.3-7.8
		c-5.5,0.7-10.9,2.3-15.8,5c-4.8,2.7-9.3,6.7-10.4,12.3C3.6,130.9,7.3,132.8,8.9,130.1L8.9,130.1z"/>
	<path fill="#DD5428" d="M42.9,127.3c-3.9,8.4-7.5,18-4.6,26.9c6.3,19.2,38.4,29.8,56.4,30.1c18,0.3,37.2-2.6,53.7-10.1
		c23.8-10.8,10.3-48.8-0.4-65.8c-8.6-13.6-24.7-31.1-41.8-30.7C79.1,78.3,53.4,104.7,42.9,127.3z"/>
	<path fill="#DD5428" d="M21.3,74.4c-5.5-5.1-7.7-13.2-6.2-20.5c1.5-7.3,6.6-13.7,13.2-17.2c1.3,5.1,2.6,10.2,3.9,15.3
		c2-1.4,3.4-3.7,3.7-6.2C41.7,50,47,55.5,48.6,62.4C52.7,80,32.1,84.3,21.3,74.4z"/>
	<path fill="#DD5428" d="M174.4,80.4c-10.6,3.5-25.4-1.1-23.4-14.7c0.6-3.9,1.9-7.7,4.4-10.9c0.6-0.7,8.2-7.1,8.3-6.5
		c0.6,2.6,0.8,5.3,0.7,8c7.2-8.2,9.9-20,7.2-30.5c12,2.6,21.6,13.9,22.2,26.2C194.5,64.4,186.1,76.6,174.4,80.4z"/>
	<path fill="#CE2828" d="M79.6,117.3c7.8,5.2,17,8.9,26.5,6.7c3.8-0.9,7.4-2.7,10.2-5.3c2.7-2.5,4.9-5.7,4.4-9.5
		c-0.1-0.8-1.2-0.7-1.5-0.2c-1.9,2.7-3.4,5.5-5.9,7.7c-2.6,2.2-5.7,3.6-9,4.2c-8,1.6-16.8-1.7-24.1-4.7
		C79.4,115.8,79,116.9,79.6,117.3L79.6,117.3z"/>
	<g>
		<path fill="#FFFFFF" d="M101.9,52.2c-1.7,12.8,12.3,21.7,24,19c13.5-3,15.8-23,6-31.2c-7.4-6.2-17.8-5.9-24.4,1.2
			C104.1,44.9,102.4,48.7,101.9,52.2z"/>
		<path fill="#040000" d="M128.8,58.9c8.8-3.9,7.5-16.5-2-18.4c-8.5-1.7-15.4,8.4-9.4,15.2C120.3,59.1,124.4,60.9,128.8,58.9z"/>
		<path fill="#FFFFFF" d="M129.2,50.6c3.2,0.6,5.4-3.6,3.1-5.9c-1.9-1.9-5.1-1.7-5.8,0.9C126,47.8,126.8,50.2,129.2,50.6z"/>
	</g>
	<g>
		<path fill="#FFFFFF" d="M57.5,58.3c-1.7,12.8,12.3,21.7,24,19c13.5-3,15.8-23,6-31.2c-7.4-6.2-17.8-5.9-24.4,1.2
			C59.7,51,58,54.7,57.5,58.3z"/>
		<path fill="#040000" d="M84.5,65c8.8-3.9,7.5-16.5-2-18.4C74,44.9,67.1,55,73,61.8C76,65.2,80.1,67,84.5,65z"/>
		<path fill="#FFFFFF" d="M84.8,56.7c3.2,0.6,5.4-3.6,3.1-5.9c-1.9-1.9-5.1-1.7-5.8,0.9C81.6,53.9,82.4,56.2,84.8,56.7z"/>
	</g>
</g>
</svg>
