<?xml version="1.0" encoding="utf-8"?>
<!-- Generator: Adobe Illustrator 21.0.0, SVG Export Plug-In . SVG Version: 6.00 Build 0)  -->
<svg version="1.1" id="Dowm" xmlns="http://www.w3.org/2000/svg" xmlns:xlink="http://www.w3.org/1999/xlink" x="0px" y="0px"
	 width="80px"
	 height="80px"
	 viewBox="0 0 80 80" style="enable-background:new 0 0 80 80;" xml:space="preserve">

<g id="Dowm.svg">
	<g>
		<circle fill="#9E89BF" cx="40" cy="40" r="40"/>
		<path fill="#FFFFFF" d="M40.1,63.1c1.6,0.1,3.3-0.7,4.5-1.9L56.8,49c2.3-2.3,2.5-5.5,0.2-7.8c-2.3-2.3-5.5-2.2-8.6,0.8l-2.7,2.7
			l0-23.1c0-3.4-2.4-6.2-5.8-6.2c-3.4,0-5.8,2.8-5.8,6.2v23.1l-3.2-3.6c-2.9-2.8-5.8-2.5-8.2-0.1c-2.3,2.3-1.8,5.8,0.5,8.1
			l12.1,12.1c1.2,1.2,2.7,1.9,4.3,1.8C39.7,63.1,40,63.1,40.1,63.1z"/>
	</g>
</g>
</svg>
