<?xml version="1.0" encoding="utf-8"?>
<!-- Generator: Adobe Illustrator 21.0.0, SVG Export Plug-In . SVG Version: 6.00 Build 0)  -->
<svg version="1.1" id="DryLand_2" xmlns="http://www.w3.org/2000/svg" xmlns:xlink="http://www.w3.org/1999/xlink" 
	 x="0px" y="0px"
	 width="27.9px"
	 height="198.5px"
	 viewBox="0 0 27.9 198.5" enable-background="new 0 0 27.9 198.5" xml:space="preserve">
<g id="DryLand2.svg">
	<path fill="#BA7E2D" d="M0,184.6L0,13.9C0,6.3,6.3,0,13.9,0h0c7.7,0,13.9,6.3,13.9,13.9v170.6c0,7.7-6.3,13.9-13.9,13.9h0
		C6.3,198.5,0,192.3,0,184.6z"/>
	<polygon fill="#A55B28" points="27.9,117.5 20.1,101.6 14.8,108.5 6.6,95.9 13.9,114.5 19.9,105.7 27.9,123.7 	"/>
	<polygon fill="#A55B28" points="27.9,30.2 20,40.6 13.9,34 6.6,42.3 13.9,30.2 19.6,36.2 27.9,22.4 	"/>
</g>
</svg>
