<?xml version="1.0" encoding="utf-8"?>
<!-- Generator: Adobe Illustrator 21.0.0, SVG Export Plug-In . SVG Version: 6.00 Build 0)  -->
<svg version="1.1" id="DryLand_1" xmlns="http://www.w3.org/2000/svg" xmlns:xlink="http://www.w3.org/1999/xlink" 
	 x="0px" y="0px"
	 width="200px"
	 height="40px"
	 viewBox="0 0 200 40" enable-background="new 0 0 200 40" xml:space="preserve">
<g id="DryLand.svg">
	<path fill="#BA7E2D" d="M14.7,6.1h170.6c7.7,0,13.9,6.3,13.9,13.9v0c0,7.7-6.3,13.9-13.9,13.9H14.7C7,33.9,0.7,27.7,0.7,20v0
		C0.7,12.3,7,6.1,14.7,6.1z"/>
	<polygon fill="#A55B28" points="81.7,33.9 97.7,26.1 90.7,20.8 103.4,12.7 84.8,20 93.6,25.9 75.6,33.9 	"/>
	<polygon fill="#A55B28" points="169.1,33.9 158.6,26 165.3,20 157,12.7 169.1,20 163,25.7 176.9,33.9 	"/>
</g>
</svg>
