<?xml version="1.0" encoding="utf-8"?>
<!-- Generator: Adobe Illustrator 21.0.0, SVG Export Plug-In . SVG Version: 6.00 Build 0)  -->
<svg version="1.1" id="Fail_1" xmlns="http://www.w3.org/2000/svg" xmlns:xlink="http://www.w3.org/1999/xlink" x="0px" y="0px"
	 width="100.1px"
	 height="100px"
	 viewBox="0 0 100.1 100" enable-background="new 0 0 100.1 100" xml:space="preserve">
<g id="Fail.svg">
	<g>
		<g>
			<path fill="#F9D953" d="M97,50.6c0,26-21,47-47,47c-5.3,0-10.4-0.9-15.1-2.5c-3.8-1.3-7.3-3-10.6-5.2C11.4,81.5,2.9,67,2.9,50.6
				c0-26,21-47,47-47C75.9,3.6,97,24.6,97,50.6z"/>
			<g>
				<path fill="#27AAE1" d="M35.1,44.8v50.3c-3.8-1.3-7.3-3-10.6-5.2V44.8H35.1z"/>
				<path fill="#27AAE1" d="M64.8,44.8v50.3c3.8-1.3,7.3-3,10.6-5.2V44.8H64.8z"/>
			</g>
			<path fill="#DDBF3E" d="M50,100C22.7,100,0.6,77.8,0.6,50.6C0.6,23.3,22.7,1.2,50,1.2s49.4,22.2,49.4,49.4
				C99.4,77.8,77.2,100,50,100z M50,5.9C25.4,5.9,5.3,26,5.3,50.6c0,24.6,20,44.6,44.6,44.6s44.6-20,44.6-44.6
				C94.6,26,74.6,5.9,50,5.9z"/>
		</g>
		<g>
			<g>
				<path fill="#834700" d="M31.8,40.7c4.5,0,8.1,2.2,8.1,5c0,2.8-3.6,0-8.1,0s-8.1,2.8-8.1,0C23.8,42.9,27.4,40.7,31.8,40.7z"/>
				<path fill="#834700" d="M68.1,45.7c-4.5,0-8.1,2.8-8.1,0c0-2.8,3.6-5,8.1-5s8.1,2.2,8.1,5C76.2,48.4,72.6,45.7,68.1,45.7z"/>
			</g>
			<path fill="#834700" d="M62.7,63.3C62.7,70.3,57,76,50,76s-12.7-5.7-12.7-12.7c0-0.7,0.1-1.5,0.2-2.2c0.6-3.7,2.9-6.9,6-8.7
				c1.9-1.1,4.1-1.8,6.5-1.8s4.6,0.7,6.5,1.8c3.1,1.9,5.4,5,6,8.7C62.6,61.8,62.7,62.5,62.7,63.3z"/>
			<path fill="#F6F6F6" d="M60.7,61.1H39.3c0.6-3.1,2.5-5.7,5.1-7.2c1.6-1,3.5-1.5,5.6-1.5s4,0.6,5.6,1.5C58.2,55.4,60,58,60.7,61.1
				z"/>
		</g>
	</g>
	<g>
		<path fill="#834700" d="M17.6,40.6c0,0,0-0.1-0.1-0.3c0-0.2-0.1-0.4-0.1-0.8c0-0.3-0.1-0.7,0-1.2c0-0.5,0.1-1,0.2-1.6
			c0.1-0.6,0.2-1.2,0.4-1.8c0.2-0.6,0.5-1.3,0.8-2c0.4-0.6,0.8-1.3,1.3-1.9c0.5-0.6,1.1-1.2,1.7-1.7c0.6-0.5,1.3-1,2-1.4
			c0.7-0.4,1.4-0.7,2.1-1c0.7-0.2,1.4-0.4,2-0.5c0.3-0.1,0.6-0.1,1-0.1c0.3,0,0.6-0.1,0.9-0.1c1.1,0,2.1,0,2.7,0.1
			c0.6,0.1,1,0.2,1,0.2c0.4,0.1,0.6,0.5,0.6,0.9c-0.1,0.3-0.3,0.5-0.5,0.5l0,0c0,0-0.3,0.1-0.9,0.2c-0.3,0.1-0.6,0.2-1,0.3
			c-0.4,0.1-0.8,0.2-1.3,0.4c-0.2,0.1-0.5,0.2-0.7,0.3c-0.2,0.1-0.5,0.2-0.7,0.3c-0.5,0.2-1,0.5-1.5,0.7c-0.5,0.3-1,0.6-1.5,0.9
			c-0.2,0.2-0.5,0.3-0.7,0.5c-0.2,0.2-0.5,0.4-0.7,0.6c-1.7,1.6-3,3.7-3.9,5.4c-0.2,0.4-0.4,0.8-0.6,1.2c-0.2,0.4-0.3,0.7-0.5,1
			c-0.1,0.3-0.2,0.5-0.3,0.6c-0.1,0.1-0.1,0.2-0.1,0.2c0,0.4-0.4,0.7-0.8,0.7C17.9,41.4,17.6,41,17.6,40.6z"/>
		<path fill="#834700" d="M82.3,40.6c0,0,0-0.1,0.1-0.3c0-0.2,0.1-0.4,0.1-0.8c0-0.3,0.1-0.7,0-1.2c0-0.5-0.1-1-0.2-1.6
			c-0.1-0.6-0.2-1.2-0.4-1.8c-0.2-0.6-0.5-1.3-0.8-2c-0.4-0.6-0.8-1.3-1.3-1.9c-0.5-0.6-1.1-1.2-1.7-1.7c-0.6-0.5-1.3-1-2-1.4
			c-0.7-0.4-1.4-0.7-2.1-1c-0.7-0.2-1.4-0.4-2-0.5c-0.3-0.1-0.6-0.1-1-0.1c-0.3,0-0.6-0.1-0.9-0.1c-1.1,0-2.1,0-2.7,0.1
			c-0.6,0.1-1,0.2-1,0.2c-0.4,0.1-0.6,0.5-0.6,0.9c0.1,0.3,0.3,0.5,0.5,0.5l0,0c0,0,0.3,0.1,0.9,0.2c0.3,0.1,0.6,0.2,1,0.3
			c0.4,0.1,0.8,0.2,1.3,0.4c0.2,0.1,0.5,0.2,0.7,0.3c0.2,0.1,0.5,0.2,0.7,0.3c0.5,0.2,1,0.5,1.5,0.7c0.5,0.3,1,0.6,1.5,0.9
			c0.2,0.2,0.5,0.3,0.7,0.5c0.2,0.2,0.5,0.4,0.7,0.6c1.7,1.6,3,3.7,3.9,5.4c0.2,0.4,0.4,0.8,0.6,1.2c0.2,0.4,0.3,0.7,0.5,1
			c0.1,0.3,0.2,0.5,0.3,0.6c0.1,0.1,0.1,0.2,0.1,0.2c0,0.4,0.4,0.7,0.8,0.7C82,41.4,82.3,41,82.3,40.6z"/>
	</g>
</g>
</svg>
