<?xml version="1.0" encoding="utf-8"?>
<!-- Generator: Adobe Illustrator 21.0.0, SVG Export Plug-In . SVG Version: 6.00 Build 0)  -->
<svg version="1.1" id="Layer_1" xmlns="http://www.w3.org/2000/svg" xmlns:xlink="http://www.w3.org/1999/xlink" x="0px" y="0px"
	width="161px"
	height="300px"
	 viewBox="0 0 161 300" enable-background="new 0 0 161 300" xml:space="preserve">
<g id="Girl.svg">
	<path fill="#FFC599" d="M68.6,256.5c-2.6,4.2-16.7,17.4-20.7,21.9c-1.5,1.7-2.1,1.9-3.9,0.6c-3.8-2.8-4.1-4.9-2.1-8.5
		c2-3.6,6-11.3,10.1-16.9C57.7,245.7,75,246.1,68.6,256.5z"/>
	<path fill="#FF5D52" d="M111.4,138.7c0,0-42,32.3-61.5,52.1c0,0-5.4,0-8.5-1.9c13-18.2,39.6-42.9,61.3-52.4
		C102.8,136.4,104.1,137.3,111.4,138.7z"/>
	<g>
		<path fill="#FFC599" d="M76,130.6l-1,5.5c-0.2,0.9-0.8,1.5-1.7,1.7l-12.2,2.7c-1.7,0.4-2.9,3.9-1.5,5.1c3.3,2.8,4,7,13.9,8.3
			c12.7,1.7,24.7,2,36.6-4.5c9.2-5,5.2-7.8,1.5-9.7c-0.3-0.1-0.5-0.2-0.8-0.3l-8-1.8c-0.9-0.1-1.6-0.8-1.8-1.7l-1.2-6.1
			c-0.2-0.8-0.8-1.4-1.6-1.6c-3-0.8-12.8-2.2-20.9,0.8C76.7,129.2,76.2,129.8,76,130.6z"/>
		<path fill="#F9B180" d="M100.7,133.9l-0.8-4.1c-0.2-0.8-0.8-1.4-1.6-1.6c-3-0.8-12.8-2.2-20.9,0.8c-0.7,0.3-1.2,0.9-1.4,1.6
			l-0.5,2.6C75.6,133.2,89.8,136.4,100.7,133.9z"/>
	</g>
	<g>
		<path fill="#FFC599" d="M154.6,138.7l-4,2.9c0-0.1-0.3-0.4-0.3-0.5l5.1-5.7c0.9-1,0.9-2.5,0-3.3c-0.9-0.8-2.4-0.5-3.3,0.5
			l-3.9,4.9c0.2-0.2-0.3-0.3-0.3-0.3l3.4-7c0.6-1.2,0.1-2.7-1-3.2c-1.2-0.5-2.6,0.1-3.2,1.3l-3.4,7.1c-0.1,0-0.3,0-0.4,0l0.9-6.4
			c0.1-1.3-0.8-2.4-2-2.5c-1.3-0.1-2.4,0.8-2.5,2.1l-0.9,7.9c-0.4,0.2-0.8,2.6-1.2,3.7c-0.3,0.2-0.5,0.2-0.7,0.2
			c-0.3-1.4-1.6-2-1.7-2.5c-0.4-1.6-1.6-5.2-3.8-4.3c-1.6,0.6-1.1,2.4-0.8,3.6l1.9,8c0,0.1,0.2,1.7,0.3,1.8c0.9,4,1.9,6.2,5.5,7.5
			c4.5,1.6,9.8-1.2,11.9-6.3c0.4-1.1,0.9-1.5,1.7-2.2c2-1.7,3.4-3.1,4.7-4.7c0.6-0.8,1.2-1.6,0.8-2.3
			C156.6,138.2,155.5,138.1,154.6,138.7z"/>
		<path fill="#FFC599" d="M103.9,148c2.5,10.9,7.4,25.1,17.1,32.3c8.3,6.2,9.1-6.4,8.1-8.6c-2-4-10.5-25-13.5-28.8
			C111,140.1,102.4,141.6,103.9,148z"/>
		<path opacity="0.19" fill="#1D1D1B" d="M114.6,141.5c-4.4-2.8-12.1,0.1-10.7,6.5c1.7,7.5,3.2,14.2,8,21.5
			c1.4-9.3,0.9-21.6,4.3-25.7C115.9,143.4,115.4,142.1,114.6,141.5z"/>
		<path fill="#FFC599" d="M127,181.3c6.2-6.7,12.5-20.2,16.4-30c1.2-3-4.8-7.8-5.8-6.1c-1.9,3.2-13.6,18.3-15,22.3
			C119.7,174.2,123.5,185.1,127,181.3z"/>
	</g>
	<path fill="#FFC599" d="M87.6,231.4c-3.1,6.2-17.4,23-17.4,23s-5.5,6.4-9.9,3.9c-4.4-2.5-6.1-4.9-3.7-10.2
		c2.4-5.3,9.9-20.2,14.6-28.8C74.7,212.8,95.3,216.1,87.6,231.4z"/>
	<path opacity="0.19" fill="#1D1D1B" d="M71.2,219.4c-4.4,8-11.3,21.6-14.1,27.6c3.3,1.5,11,3.4,16.3,3.5c4.4-5.2,12-14.7,14.2-19.1
		C95.3,216.1,74.7,212.8,71.2,219.4z"/>
	<g>
		<path fill="#FFC599" d="M116.1,247.5c2.6,4.2,8.1,22.7,10.4,28.3c0.9,2.2,0.8,2.8-1.2,3.8c-4.2,2.2-6.2,1.5-8.5-1.9
			c-2.3-3.4-7.4-10.4-10.6-16.6C101.6,252.4,109.7,237.1,116.1,247.5z"/>
		<path fill="#FFC599" d="M102.2,219.2c4.2,5.6,12.7,25.8,12.7,25.8s3.3,7.8-0.9,10.6c-4.2,2.8-7.1,3.3-10.8-1.2
			c-3.7-4.5-13.6-17.9-19.2-25.9C79.8,222.5,91.9,205.5,102.2,219.2z"/>
		<path opacity="0.19" fill="#1D1D1B" d="M114.9,245.1c0,0-8.6-20.3-12.7-25.8c-10.3-13.7-22.4,3.3-18.1,9.3
			c4.3,6.1,11.1,15.4,15.7,21.4c4.2-0.5,10.9-1.5,15.6-3.7C115.1,245.5,114.9,245.1,114.9,245.1z"/>
	</g>
	<path fill="#DD3333" d="M149.1,279.9c0,0-10.2-0.3-17.2-0.9c-1.5-1.1-2.2-3.6-3.5-4.8c-0.3-0.2-0.7-0.3-1-0.1
		c-3.9,2.5-8.2,3.5-10.4,3.7c-0.7,0.1-1,0.9-0.5,1.4l0,0c0,0,2.6,3.1,2.8,6.3c0,0,0,1.2,0,2.3c0.6,0.5,2.2,3.4,8.6,3.5
		C134,291.5,150.3,292.4,149.1,279.9z"/>
	<path fill="#131313" d="M150.4,284.3c0.4-1.1,1.7-5.4-1.7-4.4c0.7,10.3-14.7,10.7-20.4,10.7c-6.1,0-8.4-2.1-9-2.6
		c0.1,1.7,0.4,3.9,1.2,5.1C120.4,293,146.4,295.5,150.4,284.3z"/>
	<path opacity="0.12" fill="#EDEDED" d="M147.5,280.1c0,0,0.4,7.4-10.7,9.2c0,0-2.3-0.4,1.7-1.9
		C138.5,287.5,145.4,285.4,147.5,280.1z"/>
	<g>
		<path fill="#DD3333" d="M56.1,297.4c2.3-1.6,0.5-4.6,0.5-4.6c-4.5-4.2-6.7-10.4-7.3-14.3c-0.1-0.6,3.9-4,5.1-5.5
			c0.2-0.3,0.1-0.7-0.2-0.9c-4.1-2.3-7-5.7-8.5-8c-0.2-0.4-0.8-0.3-1,0.1c-3.1,5.9-7.7,6.9-7.7,6.9c-2.2,0.2-3.9,0.8-5,1.4
			c0.1,0.1,0.1,0.2,0.2,0.4C32.3,272.7,35.4,291.1,56.1,297.4z"/>
		<path fill="#131313" d="M50.9,298.2c2.7,0.2,4.3-0.2,5.2-0.8c-20.8-6.2-23.8-24.7-23.8-24.7c-0.1-0.1-0.1-0.2-0.2-0.4
			c-1.2,0.6-1.8,1.2-1.8,1.2C31.6,291.3,50.9,298.2,50.9,298.2z"/>
		<path opacity="0.14" fill="#EDEDED" d="M42.2,288.3c0,0,7.8,7.8,14.1,8.1c0,0,2.1-2.1-0.7-2.5C55.6,293.9,49.6,293.2,42.2,288.3z"
			/>
	</g>
	<path fill="#D0F7F6" d="M57.2,146.4c0,0,1.2-3.2,1.8-4.2c0.5-0.9,2-2.4,3-2.7l11.5-2.1c0,0,4,5.3,15.1,4.9
		c11.1-0.4,13.9-5.1,13.9-5.1l10.5,2.6c1.7,0.6,1.1,1.6,0.9,2c-4.3,8.9-2.8,25.2-2.8,25.2l-4.8,17.4l4,28.4c0,0-8.1,3.1-27.3,3.1
		c-17.1,0-25.9-3-25.9-3l8.7-23.1L61,168.2C61,168.2,60.8,155.1,57.2,146.4z"/>
	<path opacity="0.13" fill="#1D1D1B" d="M70.8,148.9c-1.1-4.2-1.7-7.7-6.1-9c0,0,0,0,0,0c-1.4-0.4-2.9-0.1-4,0.7
		c-0.7,0.5-1.3,1.1-1.6,1.6c14.7-9.5,2,26,2,26l1.6,7.1C69.4,166.4,72.4,155.2,70.8,148.9z"/>
	<path fill="#FEB416" d="M63.1,178.4l1.1,8.9c0,0-10.4,25.7-23.4,50.4c-2,3.8,0.8,4.4,1.8,4.7c9,2.8,51.1,14.3,84.5-1.8l-19.5-52.3
		c-0.4-0.7-0.2-2.2-0.1-3l1.1-5c0.1-0.6-0.4-1.1-1-1c-2.9,0.7-10.4,2.2-19.7,2.1C76.4,181.3,64.3,178.1,63.1,178.4z"/>
	<path fill="#F9A716" d="M107.5,188.3c-0.4-0.7-0.2-2.2-0.1-3l1.1-5c0.1-0.6-0.4-1.1-1-1c-0.7,0.2-1.7,0.4-3,0.6
		c0,2.7,0,5.4,0.2,8.1c4.7,13.9,10.3,36,15,55.6c2.4-0.9,4.9-1.9,7.2-3L107.5,188.3z"/>
	<path fill="#F4A019" d="M107.5,188.3c-0.4-0.7-0.2-2.2-0.1-3l1.1-5c0.1-0.6-0.4-1.1-1-1c-2.9,0.7-10.4,2.2-19.7,2.1
		c-11.5-0.1-23.5-3.4-24.8-3l0.8,6.9C77.3,190.4,107.5,188.3,107.5,188.3z"/>
	<g>
		<g>
			<path fill="#432918" d="M13.2,55.5c-3,18.7-3.7,21.4,8.8,57.7c4.1,12,21.4,19.2,49.2,17.3c0,0,58.7,7.8,78-50.3
				c4.9-14.7,9-42.4-37.3-68.2C65.5-13.8,18.3,23.7,13.2,55.5z"/>
			<path fill="#382114" d="M29.5,122.8c8.3,6,22.5,9,41.6,7.7c0,0,37,4.9,61.9-22.1C101.4,125.4,65,129.9,29.5,122.8z"/>
			<path fill="#432918" d="M111.8,12C65.5-13.8,18.3,23.7,13.2,55.5c-3,18.7-3.7,21.4,8.8,57.7c1.3,3.7,3.8,6.9,7.5,9.6
				c35.6,0.3,72,2.6,103.5-14.5c6.5-7,12.1-16.2,16.1-28.2C154,65.5,158.1,37.8,111.8,12z"/>
			<path fill="#4F2F1E" d="M28.6,123.6c0,0-2.5,6.7-3.4,11.4c-0.5,2.8-1.2,12.5-5.3,12.3c-2.1-0.1-2.4-1.9-2.7-3.7
				c-0.3-1.7-2.4-2.9-4.2-2.7c-4.4,1.7-5.6-1.3-7.5-2.2c0-6.4-2.5-16.3,18.6-20.7C24.2,118,28.7,121.8,28.6,123.6z"/>
			<path fill="#432918" d="M27,121.7c-2.7,14.3-6.7,22.2-9.8,21.8c0.3,1.8,0.6,3.6,2.7,3.7c4.1,0.2,4.8-9.5,5.3-12.3
				c0.8-4.7,3.1-10.6,3.1-10.6C28.4,123.3,28.3,122.9,27,121.7z"/>
			<path fill="#382114" d="M4.6,135.4c-1.3-8.4-3.7-9.4-0.9-11.9c3.3-3,14.4-4.8,21-5.4c-11.3,5.4-15.4,4.5-18.3,7
				C3.1,127.8,4.9,128.3,4.6,135.4z"/>
			<path fill="#382114" d="M31.5,142.7c-8.1-0.5-9-10.8-3.6-17.5C24.5,137.4,26.6,142.2,31.5,142.7z"/>
			<path fill="#FEB416" d="M30.3,123.1c0.4,0.3,0.2,1-0.3,1.3c-0.7,0.4-0.3,1.5-1.2,1.4c-1.1-0.1-4.2-2.3-5.1-3.2
				c-0.9-0.9-3.1-3.4-3.1-4.5c-0.1-1.2,1.3-1.8,2.2-2.1c0.4-0.1,1.2,0.8,1.4,1.1C25.3,119.2,28.7,121.7,30.3,123.1z"/>
		</g>
		<path fill="#FFC599" d="M147.2,75.6c-1.4,33.4-26,59.3-59.8,58c-29.8-1.1-57.7-26.8-58.2-56.8c0-2.4,0-4.8,0.1-7.3
			c1.4-33.4,26.5-58.1,59.9-56.8C122.6,14,148.5,42.2,147.2,75.6z"/>
		<path fill="#F9BA8F" d="M118.6,21.7c25.5,31.2,29.2,69.4,2.4,99.7c-1.9,2.2-3.9,4.5-6.1,6.6c18.9-9.3,31.4-29,32.3-52.4
			C148.1,53,136.5,32.8,118.6,21.7z"/>
		<path opacity="0.19" fill="#1D1D1B" d="M151.5,67c-0.1-16.8-11-41.3-25.2-50.1C112.7,8.4,86.6-0.5,59,9.5c-0.7,0.3-6,2-6.7,2.3
			c-0.4,0.2-7.8,5.1-8.1,5.3C14.2,35,20.1,56.5,25.6,75.1c0.6,2,2,5.9,3.5,10.5c0.2-11.6,1.8-30.4,9.5-39.1c0,4,1.7,15.5,0.6,19.5
			c0.2,2.7,0.4,6.1,0.7,10c5.7-1.8,12.2-5.1,21.1-7c24.2-5.1,43.1-3.4,59.5-1.1c0.9,0.1,0.9-10.2,0.5-16.2c3.1,3,3.9,19.2,4.5,19.3
			c12.5,2.1,15.5,4,18.3,4.9c1.1,11.7,0.3,18.3-3.1,30.8C138.7,115.1,151.6,75.8,151.5,67z"/>
		<g>
			<path fill="#FFC599" d="M19.4,94.4c1.3,6.5,7.7,10.7,14.3,9.4c6.6-1.3,5.5-6.6,4.2-13C36.6,84.3,35.6,79,29,80.3
				C22.4,81.6,18.1,88,19.4,94.4z"/>
			<path fill="#F9B180" d="M25.7,93.3c0.6,2.8,3.3,4.6,6.2,4c2.8-0.6,2.4-2.8,1.8-5.6c-0.6-2.8-1-5.1-3.8-4.5
				C27,87.7,25.2,90.5,25.7,93.3z"/>
		</g>
		<g>
			<path fill="#6B382A" d="M62.2,70.2c2.6-1.6,13.1-7.1,26.8-4.3c0.6,0.1,0.9,0.7,0.6,1.3L89,68.5c-0.2,0.4-0.6,0.6-1,0.5
				c-2.6-0.5-12.2-2-25,2.8c-0.5,0.2-1-0.1-1.2-0.5l0,0C61.7,70.9,61.8,70.4,62.2,70.2z"/>
			<path fill="#6B382A" d="M139.5,73.3c-2.5-1.8-12.5-8.2-26.3-6.5c-0.6,0.1-0.9,0.7-0.7,1.2l0.5,1.4c0.1,0.4,0.5,0.6,1,0.6
				c2.6-0.3,12.3-1,24.7,4.9c0.4,0.2,1,0,1.2-0.4l0,0C139.9,74,139.8,73.6,139.5,73.3z"/>
		</g>
		<path fill="#F9B180" d="M105.3,98.4c0,1.1-2.6,0-6,0c-3.3,0-6.1,1-6.1,0c0-1.1,2.8-3.8,6.1-3.8C102.6,94.5,105.3,97.3,105.3,98.4z
			"/>
		<path fill="#432918" d="M41.1,141.3c-7.7-9.7-3.9-34.9-5.3-58c-0.6-10.7-1.4-22.2,1.4-26.8c0.8,0.5,0.8,7.3,1.7,16.7
			c5.7-1.8,12.2-5.1,21.1-7c24.2-5.1,43.1-3.4,59.5-1.1c0.9,0.1,0.9-10.2,0.5-16.2c3.1,3,3.9,19.2,4.5,19.3c12.5,2,15.5,4,18.3,4.9
			c1.1,11.7,0.3,18.3-3.1,30.8c-2.2,8.3-8.8,23.4-7.3,33.9c3.3-21.3,9.7-27.8,14.7-39.1c5.8-13,5.9-25.7,5.9-34.5
			C153,47.6,139.4,23,125.3,14.1C111.6,5.6,85.5-3.3,57.9,6.7c-0.7,0.2,2.6-3.8,9-4.6C54.1,0,51.9,8.6,51.2,8.9
			c-0.4,0.2-9.3-3.7-14.7,4.9c-0.3,0.5,0.2,1.2,0.8,0.9c4.4-2.1,6.1-0.7,5.8-0.5C13,32.2,19,53.7,24.4,72.3
			c1.4,4.9,8.2,22.2,8.5,31.7C33.4,116.3,31.7,127.1,41.1,141.3z"/>
		<path fill="#432918" d="M39.5,138.8c0.5,0.9,1,1.8,1.6,2.5C40.5,140.5,40,139.6,39.5,138.8z"/>
		<path fill="#4F2F1E" d="M153.1,64.4C153,47.6,139.4,23,125.3,14.1C111.6,5.6,85.5-3.3,57.9,6.7c-0.7,0.2,2.6-3.8,9-4.6
			C54.1,0,51.9,8.6,51.2,8.9c-0.4,0.2-9.3-3.7-14.7,4.9c-0.3,0.5,0.2,1.2,0.8,0.9c4.4-2.1,8.1,0,7.8,0.3
			C35,25.8,29.2,35.5,27.7,40.9c-2.8,10.1-2.4,18.2-1.9,24.2c0.2,2,2.6,13,4.2,17.7c-3.5-20.2,0.4-32,8.1-40.7
			c0,4,7.6,12.2,4.1,24.2C46,68.5,51,63.7,60,61.8c1-0.2-0.6-18.1,0.1-17.5c7.2,5.6,2.8,16.2,9.4,15.8c18.5-1,28.6-1.7,41.9,0
			c0.9,0.1,2.3-16.5,3.2-16.4c1.3,0.2,2.3,19.2,3.6,19.4c0.9,0.1-0.7-19.7,1.5-19.7c6.5,5.3,7.1,23,7.7,23.1
			c5.7,0.9,11.3,2.1,13.8,2.8c1.3-1.2,0.8-10.2,1.5-10c1.1,0.3-0.9,8.3,1.7,10.5c2.9,10.9-1.2,21.6-4.6,34.2
			c-2.2,8.3-8.8,23.4-7.3,33.9c3.3-21.3,9.7-27.8,14.7-39.1C153.1,85.9,153.2,73.2,153.1,64.4z"/>
		<path fill="#432918" d="M153.1,64.4C153,47.6,139.4,23,125.3,14.1C111.6,5.6,85.5-3.3,57.9,6.7c-0.7,0.2,2.6-3.8,9-4.6
			C54.1,0,51.9,8.6,51.2,8.9c-0.4,0.2-9.3-3.7-14.7,4.9c-0.3,0.5,0.2,1.2,0.8,0.9c4.4-2.1,6.1-0.7,5.8-0.5
			C32.2,20.7,26,27.7,22.9,34.9c-0.6,1.4,11-13.6,29.5-22c17.4-7.8,38.6-10.2,54.5-4c27.5,11.6,45.8,32.3,36.6,70.4
			c-0.1,6.5-1.5,16.2-3.7,24.7c-2.2,8.3-8.8,23.4-7.3,33.9c3.3-21.3,9.7-27.8,14.7-39.1C153.1,85.9,153.2,73.2,153.1,64.4z"/>
		<path fill="#382114" d="M32.9,77.1c1.1,7.2,1.3,21.1,1.5,26.8c0.4,11.6,0,20.8,5.2,34.9c-5.5-11.1-2.5-34.2-3.7-55.5
			c-0.6-10.7-1.4-22.2,1.4-26.8c0.5,0.3,0.7,2.8,0.9,6.7c1-4-0.8-9.4-0.8-13.4C29.6,58.6,31.1,65.6,32.9,77.1z"/>
		<path fill="#432918" d="M39.5,138.8c0.5,0.9,1,1.8,1.6,2.5C40.5,140.5,40,139.6,39.5,138.8z"/>
		<path fill="#382114" d="M153.1,64.4C153,47.6,139.4,23,125.3,14.1c-5.5-3.4-13-6.9-21.8-9.2c11.2,5,23.1,8.2,30.2,17.7
			c13,16.9,27.6,42.5,7.4,82.1c-3.9,7.7-10.1,22.6-8.6,33.1c3.3-21.3,9.7-27.8,14.7-39.1C153.1,85.9,153.2,73.2,153.1,64.4z"/>
		<g>
			<path fill="#382114" d="M135.2,86.5c-3.5-0.9-3.1-7.4-11.4-7.5c-8.3-0.1-8.1,8-11.3,7.2c-4-1,1.2-10.6,11.2-10.3
				c3.8,0.1,8.4,1.2,10.5,6.4c0.1,0.1,2.1,0.4,3.2-0.7c0,1-1.2,1.7-2.7,1.8c0.1,0.4,0.1,0.5,0.2,0.9c0.1,0.3,2.5,1.6,3.4,0.5
				C137.9,87.1,135.1,86.1,135.2,86.5z"/>
			<path fill="#382114" d="M64.4,85.3c3.5-0.8,3.2-7.4,11.6-7.3c8.3,0.1,7.9,8.1,11.2,7.4c4-0.9-1-10.6-11-10.5
				c-3.8,0-7.5,1.4-10.6,6.2c-0.1,0.1-2.1,0.4-3.2-0.7c0,1,1.2,1.7,2.7,1.9c-0.1,0.4-0.2,0.5-0.3,0.9c-0.1,0.3-2.5,1.6-3.4,0.4
				C61.7,85.8,64.5,84.9,64.4,85.3z"/>
		</g>
		<g>
			<path fill="#D38753" d="M98.1,112.9c-0.1,0-0.3,0-0.4,0c-4.1-0.1-8-1.7-10.6-4.4c-0.2-0.3-0.2-0.7,0-0.9c0.3-0.2,0.7-0.2,0.9,0
				c2.4,2.4,6,3.9,9.8,4c3.8,0.1,7.4-1.2,9.9-3.4c0.3-0.2,0.7-0.2,0.9,0c0.2,0.3,0.2,0.7,0,0.9C105.7,111.5,102,112.9,98.1,112.9z"
				/>
		</g>
	</g>
	<g>
		<path opacity="0.19" fill="#1D1D1B" d="M103.8,137.5c0,0,4.1,34.7-24,67.6c0,0,4,4.5,6.9,2.1c8.9-7.2,23.5-32.4,25.7-67.4
			C112.5,139.8,108.3,138.8,103.8,137.5z"/>
		<path fill="#DD3333" d="M102.7,136.5c0,0,4.1,34.3-23.9,67.2c0,0,4,4.5,6.9,2.1c8.9-7.2,23.6-32.2,25.8-67.2
			C111.4,138.5,107.1,137.8,102.7,136.5z"/>
		<path fill="#DD3333" d="M94.4,207c-2.2,7.9-4.2,17.5-11.2,20.7c-5.4,2.4-16.7-0.5-22.8-2.2c-5.9-1.6-14.3-3.1-17.7-7.6
			c-4.7-6.3-3-16.6-0.7-24.8c3.8-14,15.2-5,29.2-1.2C85.2,195.7,98.2,193,94.4,207z"/>
		<path opacity="0.19" fill="#1D1D1B" d="M96.3,208.6c-2.2,7.9-4.2,17.5-11.2,20.7c-5.4,2.4-16.7-0.5-22.8-2.2
			c-5.9-1.6-14.3-3.1-17.7-7.6c-4.7-6.3-3-16.6-0.7-24.8c3.9-14,15.2-5,29.2-1.2C87.1,197.3,100.2,194.6,96.3,208.6z"/>
		<path fill="#FF5D52" d="M89.8,207.9c-2.4,7.8-4.1,16.7-11.2,19.6c-5.5,2.3-15.7-0.3-21.8-2.2c-5.8-1.8-14.2-3.6-17.5-8.2
			c-4.5-6.4-2.5-16.7,0-24.8c4.3-13.9,15.3-4.6,29.2-0.3C82.5,196.4,94.1,194,89.8,207.9z"/>
		<g>
			<path fill="#DD3333" d="M73.1,226.9c-0.5,0-0.9,0-1.5,0c-0.1,0-0.2-0.1-0.2-0.2c0-0.1,0.1-0.2,0.2-0.2c0.5,0,1,0,1.4,0h0.1
				c0.1,0,0.2,0.1,0.2,0.2C73.4,226.9,73.3,226.9,73.1,226.9L73.1,226.9L73.1,226.9z M74.6,226.9c-0.1,0-0.2-0.1-0.2-0.2
				c0-0.1,0.1-0.2,0.2-0.2c0.5,0,1-0.1,1.4-0.2c0.1,0,0.2,0.1,0.2,0.1c0,0.1,0,0.2-0.1,0.2C75.6,226.8,75.1,226.9,74.6,226.9
				C74.6,226.9,74.6,226.9,74.6,226.9z M70.2,226.8C70.2,226.8,70.2,226.8,70.2,226.8c-0.5,0-1-0.1-1.5-0.2c-0.1,0-0.2-0.1-0.2-0.2
				c0-0.1,0.1-0.2,0.2-0.2c0.5,0.1,1,0.1,1.4,0.2c0.1,0,0.2,0.1,0.2,0.2C70.4,226.7,70.3,226.8,70.2,226.8z M67.4,226.4
				C67.4,226.4,67.4,226.4,67.4,226.4c-0.5-0.1-1-0.2-1.5-0.3c-0.1,0-0.2-0.1-0.1-0.2c0-0.1,0.1-0.2,0.2-0.1
				c0.5,0.1,0.9,0.2,1.4,0.2c0.1,0,0.2,0.1,0.1,0.2C67.5,226.4,67.5,226.4,67.4,226.4z M77.4,226.4c-0.1,0-0.1,0-0.2-0.1
				c0-0.1,0-0.2,0.1-0.2c0.2-0.1,0.4-0.1,0.6-0.2c0.3-0.1,0.5-0.2,0.7-0.3c0.1,0,0.2,0,0.2,0.1c0,0.1,0,0.2-0.1,0.2
				c-0.2,0.1-0.5,0.2-0.8,0.4C77.9,226.2,77.7,226.3,77.4,226.4C77.5,226.4,77.5,226.4,77.4,226.4z M64.5,225.9
				C64.5,225.9,64.5,225.9,64.5,225.9c-0.5-0.1-1-0.2-1.4-0.3c-0.1,0-0.2-0.1-0.1-0.2c0-0.1,0.1-0.2,0.2-0.1
				c0.5,0.1,0.9,0.2,1.4,0.3c0.1,0,0.2,0.1,0.1,0.2C64.7,225.8,64.6,225.9,64.5,225.9z M61.7,225.2
				C61.7,225.2,61.7,225.2,61.7,225.2c-0.5-0.1-1-0.2-1.4-0.4c-0.1,0-0.2-0.1-0.1-0.2c0-0.1,0.1-0.1,0.2-0.1
				c0.5,0.1,0.9,0.2,1.4,0.4c0.1,0,0.2,0.1,0.1,0.2C61.9,225.2,61.8,225.2,61.7,225.2z M80,225.1c-0.1,0-0.1,0-0.1-0.1
				c-0.1-0.1,0-0.2,0-0.3c0.4-0.3,0.7-0.6,1.1-0.9c0.1-0.1,0.2-0.1,0.3,0s0.1,0.2,0,0.3c-0.4,0.3-0.7,0.7-1.1,0.9
				C80.1,225.1,80,225.1,80,225.1z M59,224.5C59,224.5,58.9,224.5,59,224.5c-0.5-0.1-1-0.3-1.4-0.4c-0.1,0-0.1-0.1-0.1-0.2
				c0-0.1,0.1-0.1,0.2-0.1c0.4,0.1,0.9,0.3,1.4,0.4c0.1,0,0.1,0.1,0.1,0.2C59.1,224.4,59,224.5,59,224.5z M56.2,223.7
				C56.2,223.7,56.2,223.6,56.2,223.7c-0.5-0.1-0.9-0.3-1.4-0.4l0-0.2l0-0.2c0.5,0.1,0.9,0.3,1.4,0.4c0.1,0,0.1,0.1,0.1,0.2
				C56.4,223.6,56.3,223.7,56.2,223.7z M82.1,223.1c0,0-0.1,0-0.1,0c-0.1-0.1-0.1-0.2,0-0.2c0.3-0.4,0.6-0.7,0.8-1.1
				c0.1-0.1,0.2-0.1,0.2,0c0.1,0.1,0.1,0.2,0,0.2c-0.3,0.4-0.6,0.8-0.9,1.2C82.2,223.1,82.1,223.1,82.1,223.1z M53.5,222.9
				C53.4,222.9,53.4,222.8,53.5,222.9c-0.5-0.1-1-0.3-1.4-0.4c-0.1,0-0.1-0.1-0.1-0.2c0-0.1,0.1-0.1,0.2-0.1
				c0.5,0.1,0.9,0.3,1.4,0.4c0.1,0,0.1,0.1,0.1,0.2C53.6,222.8,53.5,222.9,53.5,222.9z M50.7,222C50.7,222,50.7,222,50.7,222
				c-0.5-0.1-1-0.3-1.4-0.5c-0.1,0-0.1-0.1-0.1-0.2c0-0.1,0.1-0.1,0.2-0.1c0.5,0.2,0.9,0.3,1.4,0.4c0.1,0,0.1,0.1,0.1,0.2
				C50.8,222,50.8,222,50.7,222z M48,221.1C48,221.1,47.9,221.1,48,221.1c-0.5-0.2-1-0.4-1.4-0.5c-0.1,0-0.1-0.1-0.1-0.2
				c0-0.1,0.1-0.1,0.2-0.1c0.4,0.2,0.9,0.4,1.3,0.5c0.1,0,0.1,0.1,0.1,0.2C48.1,221,48,221.1,48,221.1z M83.7,220.7
				C83.6,220.7,83.6,220.7,83.7,220.7c-0.2-0.1-0.2-0.2-0.2-0.3c0.2-0.4,0.4-0.8,0.6-1.3c0-0.1,0.2-0.1,0.2-0.1
				c0.1,0,0.1,0.1,0.1,0.2c-0.2,0.4-0.4,0.9-0.7,1.3C83.8,220.7,83.7,220.7,83.7,220.7z M45.3,220C45.3,220,45.3,220,45.3,220
				c-0.5-0.2-1-0.5-1.4-0.7c-0.1-0.1-0.1-0.2-0.1-0.2c0-0.1,0.2-0.1,0.2-0.1c0.4,0.2,0.8,0.4,1.3,0.7c0.1,0,0.1,0.1,0.1,0.2
				C45.5,219.9,45.4,220,45.3,220z M42.8,218.5c0,0-0.1,0-0.1,0c-0.4-0.3-0.8-0.6-1.1-0.9c-0.1-0.1-0.1-0.2,0-0.3
				c0.1-0.1,0.2-0.1,0.3,0c0.3,0.3,0.7,0.6,1.1,0.9c0.1,0.1,0.1,0.2,0,0.2C43,218.5,42.9,218.5,42.8,218.5z M84.9,218.1
				C84.9,218.1,84.8,218.1,84.9,218.1c-0.2-0.1-0.2-0.2-0.2-0.2c0.2-0.4,0.4-0.9,0.5-1.3c0-0.1,0.1-0.1,0.2-0.1
				c0.1,0,0.1,0.1,0.1,0.2c-0.2,0.5-0.3,0.9-0.5,1.3C85,218.1,85,218.1,84.9,218.1z M40.8,216.5c-0.1,0-0.1,0-0.1-0.1l-0.1-0.1
				c-0.2-0.4-0.5-0.7-0.7-1.1c0-0.1,0-0.2,0.1-0.2c0.1,0,0.2,0,0.2,0.1c0.2,0.4,0.4,0.7,0.7,1.1l0.1,0.1c0.1,0.1,0,0.2,0,0.3
				C40.8,216.5,40.8,216.5,40.8,216.5z M85.9,215.4C85.9,215.4,85.9,215.4,85.9,215.4c-0.2,0-0.2-0.1-0.2-0.2
				c0.2-0.4,0.3-0.9,0.4-1.4c0-0.1,0.1-0.1,0.2-0.1c0.1,0,0.1,0.1,0.1,0.2c-0.1,0.5-0.3,0.9-0.4,1.4C86,215.4,86,215.4,85.9,215.4z
				 M39.4,214c-0.1,0-0.1,0-0.2-0.1c-0.2-0.4-0.3-0.9-0.5-1.4c0-0.1,0-0.2,0.1-0.2c0.1,0,0.2,0,0.2,0.1c0.1,0.5,0.3,0.9,0.5,1.3
				C39.6,213.9,39.5,214,39.4,214C39.4,214,39.4,214,39.4,214z M86.8,212.7C86.7,212.7,86.7,212.7,86.8,212.7
				c-0.1,0-0.2-0.1-0.2-0.2c0.1-0.5,0.3-0.9,0.4-1.4c0-0.1,0.1-0.2,0.2-0.1c0.1,0,0.1,0.1,0.1,0.2c-0.1,0.5-0.3,0.9-0.4,1.4
				C86.9,212.6,86.8,212.7,86.8,212.7z M38.6,211.3c-0.1,0-0.2-0.1-0.2-0.1c-0.1-0.5-0.2-0.9-0.2-1.4c0-0.1,0.1-0.2,0.2-0.2
				c0.1,0,0.2,0.1,0.2,0.2c0.1,0.5,0.1,1,0.2,1.4C38.8,211.2,38.7,211.3,38.6,211.3C38.6,211.3,38.6,211.3,38.6,211.3z M87.6,209.9
				C87.6,209.9,87.5,209.9,87.6,209.9c-0.1,0-0.2-0.1-0.2-0.2l0-0.1c0.1-0.4,0.2-0.8,0.4-1.2c0-0.1,0.1-0.1,0.2-0.1
				c0.1,0,0.1,0.1,0.1,0.2c-0.1,0.4-0.2,0.8-0.4,1.2l0,0.2C87.7,209.9,87.6,209.9,87.6,209.9z M38.3,208.4c-0.1,0-0.2-0.1-0.2-0.2
				c0-0.3,0-0.7,0-1c0-0.1,0-0.3,0-0.4c0-0.1,0.1-0.2,0.2-0.2h0c0.1,0,0.2,0.1,0.2,0.2c0,0.1,0,0.3,0,0.4c0,0.3,0,0.7,0,1
				C38.5,208.3,38.4,208.4,38.3,208.4C38.3,208.4,38.3,208.4,38.3,208.4z M88.4,207.2C88.4,207.2,88.4,207.2,88.4,207.2
				c-0.1,0-0.2-0.1-0.2-0.2c0.1-0.5,0.3-0.9,0.4-1.4c0-0.1,0.1-0.2,0.2-0.1c0.1,0,0.2,0.1,0.1,0.2c-0.1,0.4-0.2,0.9-0.4,1.4
				C88.5,207.1,88.5,207.2,88.4,207.2z M38.3,205.5C38.3,205.5,38.3,205.5,38.3,205.5c-0.1,0-0.2-0.1-0.2-0.2c0-0.5,0.1-1,0.1-1.4
				c0-0.1,0.1-0.2,0.2-0.2c0.1,0,0.2,0.1,0.2,0.2c-0.1,0.5-0.1,1-0.1,1.4C38.5,205.5,38.4,205.5,38.3,205.5z M89,204.4
				C89,204.4,89,204.4,89,204.4c-0.1,0-0.2-0.1-0.2-0.2c0.1-0.5,0.1-0.9,0.1-1.3v-0.1c0-0.1,0.1-0.2,0.2-0.2c0.1,0,0.2,0.1,0.2,0.2
				l0,0.1c0,0.4,0,0.9-0.1,1.4C89.2,204.3,89.1,204.4,89,204.4z M38.6,202.7C38.6,202.7,38.6,202.7,38.6,202.7
				c-0.1,0-0.2-0.1-0.2-0.2c0.1-0.5,0.1-0.9,0.2-1.4c0-0.1,0.1-0.2,0.2-0.1c0.1,0,0.2,0.1,0.1,0.2c-0.1,0.5-0.2,1-0.2,1.4
				C38.8,202.6,38.7,202.7,38.6,202.7z M89,201.5c-0.1,0-0.2-0.1-0.2-0.1c-0.1-0.4-0.3-0.8-0.5-1.2c0,0,0-0.1-0.1-0.1
				c-0.1-0.1,0-0.2,0.1-0.2c0.1-0.1,0.2,0,0.2,0.1c0,0,0.1,0.1,0.1,0.1c0.2,0.4,0.4,0.8,0.5,1.3C89.1,201.4,89.1,201.5,89,201.5
				C89,201.5,89,201.5,89,201.5z M39.1,199.8C39.1,199.8,39.1,199.8,39.1,199.8c-0.1,0-0.2-0.1-0.2-0.2c0.1-0.5,0.2-0.9,0.3-1.4
				c0-0.1,0.1-0.2,0.2-0.1c0.1,0,0.2,0.1,0.1,0.2c-0.1,0.5-0.2,0.9-0.3,1.4C39.3,199.8,39.2,199.8,39.1,199.8z M87.4,199.1
				c0,0-0.1,0-0.1,0c-0.3-0.3-0.7-0.5-1.2-0.7c-0.1,0-0.1-0.2-0.1-0.2c0-0.1,0.2-0.1,0.2-0.1c0.5,0.2,0.9,0.5,1.2,0.8
				c0.1,0.1,0.1,0.2,0,0.2C87.5,199.1,87.5,199.1,87.4,199.1z M84.9,197.8C84.9,197.8,84.9,197.8,84.9,197.8
				c-0.5-0.2-0.9-0.3-1.4-0.4c-0.1,0-0.2-0.1-0.1-0.2c0-0.1,0.1-0.2,0.2-0.1c0.5,0.1,1,0.3,1.4,0.4c0.1,0,0.1,0.1,0.1,0.2
				C85,197.8,85,197.8,84.9,197.8z M39.8,197C39.8,197,39.7,197,39.8,197c-0.1,0-0.2-0.1-0.2-0.2c0.1-0.5,0.2-0.9,0.4-1.4
				c0-0.1,0.1-0.1,0.2-0.1c0.1,0,0.1,0.1,0.1,0.2c-0.1,0.5-0.2,0.9-0.4,1.4C39.9,197,39.9,197,39.8,197z M82.1,197
				C82.1,197,82.1,197,82.1,197c-0.5-0.1-1-0.2-1.4-0.3c-0.1,0-0.2-0.1-0.1-0.2c0-0.1,0.1-0.2,0.2-0.1c0.5,0.1,1,0.2,1.4,0.3
				c0.1,0,0.2,0.1,0.1,0.2C82.3,197,82.2,197,82.1,197z M79.3,196.4C79.3,196.4,79.3,196.4,79.3,196.4l-1.4-0.3
				c-0.1,0-0.2-0.1-0.1-0.2c0-0.1,0.1-0.2,0.2-0.1l1.4,0.3c0.1,0,0.2,0.1,0.1,0.2C79.5,196.3,79.4,196.4,79.3,196.4z M76.5,195.8
				C76.5,195.8,76.5,195.8,76.5,195.8c-0.5-0.1-1-0.2-1.4-0.3c-0.1,0-0.2-0.1-0.1-0.2c0-0.1,0.1-0.2,0.2-0.1
				c0.5,0.1,0.9,0.2,1.4,0.3c0.1,0,0.2,0.1,0.1,0.2C76.7,195.8,76.6,195.8,76.5,195.8z M73.7,195.2
				C73.7,195.2,73.7,195.2,73.7,195.2c-0.5-0.1-1-0.2-1.4-0.3c-0.1,0-0.2-0.1-0.1-0.2c0-0.1,0.1-0.2,0.2-0.1
				c0.5,0.1,0.9,0.2,1.4,0.3c0.1,0,0.2,0.1,0.1,0.2C73.8,195.2,73.8,195.2,73.7,195.2z M70.9,194.6
				C70.9,194.6,70.9,194.6,70.9,194.6c-0.5-0.1-1-0.2-1.4-0.4c-0.1,0-0.2-0.1-0.1-0.2c0-0.1,0.1-0.2,0.2-0.1
				c0.5,0.1,0.9,0.3,1.4,0.4c0.1,0,0.2,0.1,0.1,0.2C71,194.5,71,194.6,70.9,194.6z M40.5,194.3C40.5,194.3,40.5,194.3,40.5,194.3
				c-0.1,0-0.2-0.1-0.2-0.2c0.1-0.4,0.2-0.8,0.4-1.3l0-0.1c0-0.1,0.1-0.1,0.2-0.1c0.1,0,0.1,0.1,0.1,0.2l0,0.1
				c-0.1,0.4-0.3,0.9-0.4,1.3C40.7,194.2,40.6,194.3,40.5,194.3z M68.1,193.8C68.1,193.8,68.1,193.8,68.1,193.8
				c-0.5-0.1-1-0.3-1.4-0.4c-0.1,0-0.1-0.1-0.1-0.2c0-0.1,0.1-0.1,0.2-0.1c0.4,0.1,0.9,0.3,1.4,0.4c0.1,0,0.1,0.1,0.1,0.2
				C68.3,193.7,68.2,193.8,68.1,193.8z M65.4,192.9C65.4,192.9,65.4,192.9,65.4,192.9c-0.5-0.2-1-0.3-1.4-0.5
				c-0.1,0-0.1-0.1-0.1-0.2c0-0.1,0.1-0.1,0.2-0.1c0.4,0.2,0.9,0.3,1.3,0.5c0.1,0,0.1,0.1,0.1,0.2C65.5,192.8,65.5,192.9,65.4,192.9
				z M62.7,191.9C62.7,191.9,62.7,191.9,62.7,191.9c-0.5-0.2-1-0.4-1.4-0.5c-0.1,0-0.1-0.1-0.1-0.2c0-0.1,0.1-0.1,0.2-0.1
				c0.4,0.2,0.9,0.4,1.3,0.5c0.1,0,0.1,0.1,0.1,0.2C62.8,191.8,62.8,191.9,62.7,191.9z M41.4,191.5
				C41.4,191.5,41.4,191.5,41.4,191.5c-0.2-0.1-0.2-0.2-0.2-0.2c0.2-0.5,0.4-0.9,0.6-1.3c0-0.1,0.2-0.1,0.2-0.1
				c0.1,0,0.1,0.1,0.1,0.2c-0.2,0.4-0.4,0.8-0.6,1.3C41.6,191.5,41.5,191.5,41.4,191.5z M60,190.8C60,190.8,60,190.8,60,190.8
				l-1.4-0.6c-0.1,0-0.1-0.1-0.1-0.2c0-0.1,0.1-0.1,0.2-0.1l1.3,0.5c0.1,0,0.1,0.1,0.1,0.2C60.2,190.7,60.1,190.8,60,190.8z
				 M57.4,189.7C57.4,189.7,57.3,189.7,57.4,189.7c-0.5-0.2-1-0.4-1.4-0.6c-0.1,0-0.1-0.1-0.1-0.2c0-0.1,0.1-0.1,0.2-0.1
				c0.4,0.2,0.9,0.4,1.3,0.5c0.1,0,0.1,0.1,0.1,0.2C57.5,189.6,57.5,189.7,57.4,189.7z M42.8,189c0,0-0.1,0-0.1,0
				c-0.1-0.1-0.1-0.2,0-0.2c0.3-0.4,0.7-0.8,1-1.1c0.1-0.1,0.2-0.1,0.3,0c0.1,0.1,0.1,0.2,0,0.2c-0.3,0.3-0.7,0.6-0.9,1
				C42.9,189,42.8,189,42.8,189z M54.7,188.6C54.7,188.6,54.7,188.6,54.7,188.6c-0.5-0.2-1-0.4-1.4-0.5c-0.1,0-0.1-0.1-0.1-0.2
				c0-0.1,0.1-0.1,0.2-0.1c0.4,0.2,0.9,0.3,1.4,0.5c0.1,0,0.1,0.1,0.1,0.2C54.9,188.6,54.8,188.6,54.7,188.6z M52,187.7
				C52,187.7,52,187.7,52,187.7c-0.5-0.2-1-0.3-1.4-0.4c-0.1,0-0.2-0.1-0.1-0.2c0-0.1,0.1-0.1,0.2-0.1c0.4,0.1,0.9,0.2,1.4,0.4
				c0.1,0,0.1,0.1,0.1,0.2C52.1,187.6,52.1,187.7,52,187.7z M45,187.2c-0.1,0-0.1,0-0.2-0.1c0-0.1,0-0.2,0.1-0.2
				c0.4-0.2,0.9-0.3,1.4-0.4c0.1,0,0.2,0.1,0.2,0.2c0,0.1-0.1,0.2-0.2,0.2C45.9,186.9,45.4,187,45,187.2C45,187.2,45,187.2,45,187.2
				z M49.2,187C49.2,187,49.2,187,49.2,187c-0.5-0.1-1-0.1-1.4-0.2c-0.1,0-0.2-0.1-0.2-0.2c0-0.1,0.1-0.2,0.2-0.2
				c0.5,0,0.9,0.1,1.5,0.2c0.1,0,0.2,0.1,0.1,0.2C49.4,186.9,49.3,187,49.2,187z"/>
		</g>
		<path fill="#DD3333" d="M40.7,202.5c7.7,6.1,36.6,12,40.8,12c4.4,0,4.9-0.5,7.4-4c0.3-1,0.6-1.7,0.9-2.7
			c4.3-13.9-7.2-11.5-21.2-15.8c-13.9-4.3-25-13.7-29.2,0.3c-0.2,0.5-0.3,1-0.4,1.5C38.4,197.3,38,200.3,40.7,202.5z"/>
		<g>
			<g>
				<g>
					<path fill="#DD3333" d="M55,221.6L55,221.6c1.7,0.5,3.4-0.2,3.8-1.6c0,0,1.4-3.6,2.7-8c1.5-5.2,2.5-9.7,2.5-9.7
						c0.1-0.5-0.2-1.1-0.9-1.3l-3.8-1.1c-0.6-0.2-1.3,0.1-1.4,0.6c0,0-1.7,7.3-2.5,9.7c-0.6,2-2.7,8-2.7,8
						C52.3,219.6,53.4,221.1,55,221.6z"/>
				</g>
				<g>
					<path fill="#FF5D52" d="M55.2,221C55.2,221,55.2,221,55.2,221c-0.3-0.1-0.5-0.2-0.7-0.3c0,0-0.1-0.1,0-0.1c0,0,0.1,0,0.1,0
						c0.2,0.1,0.4,0.2,0.7,0.3c0,0,0,0,0.1,0h0c0.1,0,0.1,0.1,0.1,0.1C55.4,221,55.3,221,55.2,221C55.3,221,55.2,221,55.2,221z
						 M56.1,221.1C56,221.1,56,221.1,56.1,221.1c-0.1-0.1,0-0.2,0-0.2c0.2,0,0.5,0,0.7-0.1c0,0,0.1,0,0.1,0.1c0,0,0,0.1-0.1,0.1
						C56.6,221.1,56.4,221.1,56.1,221.1C56.1,221.1,56.1,221.1,56.1,221.1z M53.9,220.2C53.9,220.2,53.9,220.2,53.9,220.2
						c-0.2-0.2-0.4-0.4-0.5-0.7c0,0,0-0.1,0.1-0.1c0,0,0.1,0,0.1,0.1c0.1,0.2,0.2,0.4,0.4,0.6C54.1,220.1,54,220.2,53.9,220.2
						C54,220.2,53.9,220.2,53.9,220.2z M57.4,220.7C57.4,220.7,57.4,220.7,57.4,220.7c-0.1-0.1-0.1-0.1,0-0.2
						c0.2-0.1,0.3-0.3,0.4-0.5c0,0,0.1-0.1,0.1,0c0,0,0.1,0.1,0,0.1C57.9,220.4,57.7,220.5,57.4,220.7
						C57.5,220.7,57.5,220.7,57.4,220.7z M53.4,219C53.3,218.9,53.3,218.9,53.4,219c-0.1-0.2-0.1-0.4,0-0.5l0.1-0.3
						c0,0,0.1-0.1,0.1-0.1c0.1,0,0.1,0.1,0.1,0.1l-0.1,0.3c0,0.1,0,0.2-0.1,0.4C53.5,218.9,53.5,219,53.4,219
						C53.4,219,53.4,219,53.4,219z M58.2,219.6C58.2,219.6,58.2,219.6,58.2,219.6c-0.1,0-0.1-0.1-0.1-0.1c0.1-0.2,0.1-0.4,0.2-0.6
						c0,0,0.1-0.1,0.1-0.1c0.1,0,0.1,0.1,0.1,0.1c-0.1,0.3-0.2,0.5-0.2,0.6C58.3,219.6,58.2,219.6,58.2,219.6z M53.8,217.7
						L53.8,217.7c-0.1,0-0.1-0.1-0.1-0.1l0.2-0.6c0,0,0.1-0.1,0.1-0.1c0.1,0,0.1,0.1,0.1,0.1l-0.2,0.6
						C53.9,217.6,53.8,217.7,53.8,217.7z M58.6,218.3C58.6,218.3,58.6,218.3,58.6,218.3c-0.1,0-0.1-0.1-0.1-0.1
						c0.1-0.2,0.1-0.4,0.2-0.6c0,0,0.1-0.1,0.1-0.1c0.1,0,0.1,0.1,0.1,0.1c-0.1,0.2-0.2,0.4-0.2,0.6
						C58.7,218.3,58.7,218.3,58.6,218.3z M54.2,216.4C54.2,216.4,54.2,216.4,54.2,216.4c-0.1,0-0.1-0.1-0.1-0.1l0.2-0.6
						c0,0,0.1-0.1,0.1-0.1l0,0c0.1,0,0.1,0.1,0.1,0.1l-0.2,0.6C54.3,216.4,54.2,216.4,54.2,216.4z M59.1,217L59.1,217
						c-0.1,0-0.1-0.1-0.1-0.1c0.1-0.2,0.1-0.4,0.2-0.6c0,0,0.1-0.1,0.1-0.1c0.1,0,0.1,0.1,0.1,0.1c-0.1,0.2-0.2,0.4-0.2,0.6
						C59.2,217,59.1,217,59.1,217z M54.6,215.1L54.6,215.1c-0.1,0-0.1-0.1-0.1-0.1l0.2-0.6c0,0,0.1-0.1,0.1-0.1
						c0.1,0,0.1,0.1,0.1,0.1l-0.2,0.6C54.7,215.1,54.7,215.1,54.6,215.1z M59.5,215.7L59.5,215.7c-0.1,0-0.1-0.1-0.1-0.1
						c0.1-0.2,0.1-0.4,0.2-0.6c0,0,0.1-0.1,0.1-0.1c0.1,0,0.1,0.1,0.1,0.1c-0.1,0.2-0.1,0.4-0.2,0.6
						C59.6,215.7,59.6,215.8,59.5,215.7z M55.1,213.8L55.1,213.8c-0.1,0-0.1-0.1-0.1-0.1l0.2-0.6c0,0,0.1-0.1,0.1-0.1
						c0.1,0,0.1,0.1,0.1,0.1l-0.2,0.6C55.2,213.8,55.1,213.8,55.1,213.8z M60,214.5L60,214.5c-0.1,0-0.1-0.1-0.1-0.1
						c0.1-0.2,0.1-0.4,0.2-0.6c0,0,0.1-0.1,0.1-0.1h0c0.1,0,0.1,0.1,0.1,0.1c-0.1,0.2-0.1,0.4-0.2,0.6C60.1,214.5,60,214.5,60,214.5
						z M55.5,212.5L55.5,212.5c-0.1,0-0.1-0.1-0.1-0.1c0.1-0.2,0.1-0.4,0.2-0.6c0,0,0.1-0.1,0.1-0.1c0.1,0,0.1,0.1,0.1,0.1
						c-0.1,0.2-0.1,0.4-0.2,0.6C55.6,212.5,55.6,212.5,55.5,212.5z M60.4,213.2L60.4,213.2c-0.1,0-0.1-0.1-0.1-0.1
						c0.1-0.2,0.1-0.4,0.2-0.6c0,0,0.1-0.1,0.1-0.1h0c0.1,0,0.1,0.1,0.1,0.1c-0.1,0.2-0.1,0.4-0.2,0.7
						C60.5,213.2,60.4,213.2,60.4,213.2z M55.9,211.2L55.9,211.2c-0.1,0-0.1-0.1-0.1-0.1c0.1-0.2,0.1-0.5,0.2-0.6l0.1,0l0.1,0
						c-0.1,0.2-0.1,0.4-0.2,0.6C56,211.2,56,211.3,55.9,211.2z M60.8,211.9c-0.1,0-0.1-0.1-0.1-0.1c0.1-0.2,0.1-0.4,0.2-0.7
						c0,0,0.1-0.1,0.1-0.1v0c0.1,0,0.1,0.1,0.1,0.1c-0.1,0.2-0.1,0.4-0.2,0.7C60.9,211.9,60.8,211.9,60.8,211.9L60.8,211.9z
						 M56.3,209.9c-0.1,0-0.1-0.1-0.1-0.1c0.1-0.2,0.1-0.4,0.2-0.7c0,0,0.1-0.1,0.1-0.1l0,0c0.1,0,0.1,0.1,0.1,0.1
						c-0.1,0.2-0.1,0.4-0.2,0.7C56.4,209.9,56.4,210,56.3,209.9L56.3,209.9z M61.1,210.6c-0.1,0-0.1-0.1-0.1-0.1
						c0.1-0.2,0.1-0.4,0.2-0.7c0,0,0.1-0.1,0.1-0.1l0,0c0.1,0,0.1,0.1,0.1,0.1c-0.1,0.2-0.1,0.4-0.2,0.7
						C61.2,210.6,61.2,210.6,61.1,210.6L61.1,210.6z M56.7,208.6c0,0-0.1-0.1-0.1-0.1c0.1-0.2,0.1-0.4,0.2-0.7c0,0,0.1-0.1,0.1-0.1
						c0.1,0,0.1,0.1,0.1,0.1c-0.1,0.2-0.1,0.4-0.2,0.7C56.8,208.6,56.7,208.6,56.7,208.6L56.7,208.6z M61.5,209.3
						c-0.1,0-0.1-0.1-0.1-0.1c0.1-0.2,0.1-0.4,0.2-0.7c0,0,0.1-0.1,0.1-0.1h0c0.1,0,0.1,0.1,0.1,0.1c-0.1,0.2-0.1,0.4-0.2,0.7
						C61.6,209.3,61.5,209.3,61.5,209.3L61.5,209.3z M57,207.3c0,0-0.1-0.1-0.1-0.1l0.2-0.7c0,0,0.1-0.1,0.1-0.1
						c0.1,0,0.1,0.1,0.1,0.1l-0.2,0.7C57.1,207.3,57.1,207.3,57,207.3C57,207.3,57,207.3,57,207.3z M61.8,208
						c-0.1,0-0.1-0.1-0.1-0.1c0.1-0.2,0.1-0.4,0.2-0.7c0,0,0.1-0.1,0.1-0.1h0c0,0,0.1,0.1,0.1,0.1c-0.1,0.2-0.1,0.4-0.2,0.7
						C61.9,207.9,61.9,208,61.8,208L61.8,208z M57.4,206c0,0-0.1-0.1-0.1-0.1l0.2-0.7c0,0,0.1-0.1,0.1-0.1l0,0
						c0.1,0,0.1,0.1,0.1,0.1l-0.2,0.7C57.5,206,57.4,206,57.4,206L57.4,206z M62.2,206.6c-0.1,0-0.1-0.1-0.1-0.1
						c0.1-0.2,0.1-0.4,0.2-0.7c0,0,0.1-0.1,0.1-0.1c0,0,0.1,0.1,0.1,0.1c-0.1,0.2-0.1,0.4-0.2,0.7C62.3,206.6,62.2,206.7,62.2,206.6
						L62.2,206.6z M57.7,204.7c0,0-0.1-0.1-0.1-0.1l0.2-0.7c0,0,0.1-0.1,0.1-0.1c0.1,0,0.1,0.1,0.1,0.1l-0.2,0.7
						C57.8,204.7,57.7,204.7,57.7,204.7L57.7,204.7z M62.5,205.3c-0.1,0-0.1-0.1-0.1-0.1c0.1-0.2,0.1-0.4,0.2-0.7
						c0,0,0.1-0.1,0.1-0.1c0.1,0,0.1,0.1,0.1,0.1c0,0.2-0.1,0.4-0.2,0.7C62.6,205.3,62.6,205.3,62.5,205.3
						C62.5,205.3,62.5,205.3,62.5,205.3z M58,203.4c-0.1,0-0.1-0.1-0.1-0.1l0.2-0.7c0,0,0.1-0.1,0.1-0.1c0.1,0,0.1,0.1,0.1,0.1
						l-0.2,0.7C58.1,203.4,58.1,203.4,58,203.4L58,203.4z M62.8,204c-0.1,0-0.1-0.1-0.1-0.1c0.1-0.2,0.1-0.5,0.2-0.7
						c0,0,0.1-0.1,0.1-0.1c0.1,0,0.1,0.1,0.1,0.1c0,0.2-0.1,0.4-0.2,0.7C62.9,204,62.9,204,62.8,204L62.8,204z M58.3,202.1
						C58.3,202,58.3,202,58.3,202.1c0-0.4,0-0.6,0.1-0.8c0,0,0.1-0.1,0.1-0.1c0,0,0.1,0.1,0.1,0.1c0,0.2-0.1,0.4-0.2,0.7
						C58.4,202,58.4,202.1,58.3,202.1L58.3,202.1z M63.1,202.7c0,0-0.1-0.1-0.1-0.1l0.1-0.4c0,0,0-0.1,0-0.1c0,0,0-0.1,0-0.1
						c0,0,0.1,0,0.1,0c0.1,0.1,0.1,0.2,0.1,0.3l0,0l-0.1,0.4C63.2,202.7,63.2,202.7,63.1,202.7C63.1,202.7,63.1,202.7,63.1,202.7z
						 M58.7,200.8C58.7,200.8,58.7,200.8,58.7,200.8c-0.1-0.1-0.1-0.1,0-0.2c0.1-0.1,0.3-0.1,0.4,0l0.4,0.1c0.1,0,0.1,0.1,0.1,0.1
						s-0.1,0.1-0.1,0.1l-0.4-0.1C59,200.7,58.9,200.7,58.7,200.8C58.8,200.8,58.8,200.8,58.7,200.8z M62.5,201.7l-0.7-0.2
						c-0.1,0-0.1-0.1-0.1-0.1c0,0,0.1-0.1,0.1-0.1l0.7,0.2c0.1,0,0.1,0.1,0.1,0.1C62.6,201.7,62.5,201.8,62.5,201.7z M61,201.3
						l-0.7-0.2c-0.1,0-0.1-0.1-0.1-0.1c0,0,0.1-0.1,0.1-0.1l0.7,0.2c0.1,0,0.1,0.1,0.1,0.1C61.1,201.3,61,201.3,61,201.3z"/>
				</g>
			</g>
			<g>
				<g>
					<path fill="#BA2424" d="M61.7,211.6l-0.5,1.3l-6-2.1l0.5-1.3c-1.3-0.2-2.5,0.5-2.9,1.6l-0.2,0.6c-0.4,1.2,0.2,2.5,1.4,3.1
						l0.3-0.9l6,2.1l-0.3,0.9c1.3,0.1,2.4-0.5,2.8-1.6l0.2-0.6C63.4,213.5,62.9,212.3,61.7,211.6z"/>
				</g>
				<g>
					<path fill="#FF5D52" d="M61.3,215.6l-7.5-2.6l-0.2,0.6c-0.3-0.5-0.4-1.1-0.2-1.6l0.2-0.6c0.2-0.5,0.6-0.9,1.1-1.1l-0.3,0.8
						l7.4,2.6l0.3-0.9c0.3,0.5,0.4,1,0.2,1.6l-0.2,0.6c-0.2,0.4-0.5,0.8-0.9,1L61.3,215.6z"/>
				</g>
			</g>
		</g>
	</g>
	<g>
		<path fill="#FFC599" d="M59.7,142.8c-6.6,9.1-15,25.5-14,37.7c1,11.4,9.7,3,10.6,0.8c1.7-4.2,12-20.7,12.9-25.5
			C70.9,142.7,63.6,137.4,59.7,142.8z"/>
		<g>
			<path fill="#FFC599" d="M94.7,180.2c0.9,0.9-0.5,5.2-2,6.5c-0.9,0.7-2,4.6-2,4.6c-1.1,1.1-4.1,1.2-5,0.3l0,0
				c-0.9-0.9-2.5-4.9-1.4-6l6.1-3.1C91.5,181.4,93.2,178.6,94.7,180.2z"/>
			<g>
				<path fill="#FFC599" d="M94.3,195.5c-0.9,5.1-4.9,8.6-9.1,7.9c-4.1-0.7-7.5-5.2-6.6-10.3c0.9-5.1,5.6-8.8,9.8-8.1
					C92.5,185.8,95.1,190.5,94.3,195.5z"/>
				<path fill="#FFC599" d="M98.7,198.7c-0.4,1-1.6,1.4-2.5,1l-4.1-1.8c-1-0.4-1.4-1.6-1-2.5l0,0c0.4-1,1.6-1.4,2.5-1l4.1,1.8
					C98.7,196.5,99.1,197.7,98.7,198.7L98.7,198.7z"/>
				<path fill="#FFC599" d="M99.9,193.9c-0.5,1.1-2,1.5-3.3,0.9l-5.9-2.6c-1.4-0.6-2.1-2-1.6-3l0,0c0.5-1.1,2-1.5,3.3-0.9l5.9,2.6
					C99.6,191.4,100.3,192.8,99.9,193.9L99.9,193.9z"/>
				<path fill="#FFC599" d="M96.2,202.3c-0.4,0.9-1.4,1.5-2.2,1.2l-3.4-1.6c-0.8-0.3-1.1-1.4-0.7-2.3l0,0c0.4-0.9,1.4-1.4,2.2-1.1
					l3.4,1.5C96.3,200.3,96.6,201.4,96.2,202.3L96.2,202.3z"/>
				<path fill="#FFC599" d="M93.5,205.3c-0.4,0.9-1.8,1.2-3,0.6l-6.1-2.8c-1.3-0.6-1.5-1.3-1.2-2.2l0,0c0.4-0.9,1.7-1.2,3-0.6
					l5.5,2.6C93.1,203.5,93.9,204.4,93.5,205.3L93.5,205.3z"/>
			</g>
		</g>
		<path fill="#FFC599" d="M48.1,186.3c7.6,5.9,22.3,11.9,33.4,11.4c10.4-0.5,2.5-7.7,0.5-8.6c-3.6-1.6-21.6-11.1-25.9-12
			C51.3,177.8,43.6,182.8,48.1,186.3z"/>
	</g>
	<path opacity="0.33" fill="#1D1D1B" d="M145.3,51.7c0.6,0.6,3-1.4,2.5-2.2C142,39.8,126.5,15.6,90.4,16
		c-37,0.4-52.8,21.2-55.8,30.6c-0.3,0.8,0.8,1.3,1.3,0.7c5.2-6.5,22.2-18.1,56-19.5C118.9,26.7,137.7,44.5,145.3,51.7z"/>
	<path fill="#FF5D52" d="M143.1,46.2c0.6,0.6,1.6-0.2,1.1-0.9c-5.8-9.7-18.3-31-54.4-30.6c-37,0.4-52.7,21.2-55.8,30.6
		c-0.3,0.8,0.8,1.3,1.3,0.7c5.2-6.5,22.5-19.6,56.3-21C118.7,23.9,135.6,39,143.1,46.2z"/>
</g>
</svg>
