<?xml version="1.0" encoding="utf-8"?>
<!-- Generator: Adobe Illustrator 21.0.0, SVG Export Plug-In . SVG Version: 6.00 Build 0)  -->
<svg version="1.1" id="Goldcoin_1" xmlns="http://www.w3.org/2000/svg" xmlns:xlink="http://www.w3.org/1999/xlink" x="0px" y="0px"
	 width="100px"
	 height="100px"
	 viewBox="0 0 100 100" enable-background="new 0 0 100 100" xml:space="preserve">
<g id="Goldcoin.svg">
	<path id="XMLID_2518_" fill-rule="evenodd" clip-rule="evenodd" fill="#F5C738" d="M50,0C22.4,0,0,22.4,0,50c0,27.6,22.4,50,50,50
		s50-22.4,50-50C100,22.4,77.6,0,50,0z"/>
	<path id="XMLID_583_" fill-rule="evenodd" clip-rule="evenodd" fill="#F5C738" d="M50,12.6c-20.6,0-37.4,16.7-37.4,37.4
		c0,20.6,16.7,37.4,37.4,37.4c20.6,0,37.4-16.7,37.4-37.4C87.4,29.4,70.6,12.6,50,12.6z"/>
	<path id="XMLID_3452_" fill-rule="evenodd" clip-rule="evenodd" fill="#FFFFFF" d="M51.4,46.1c-6.2-1.9-7.5-2.8-7.5-5.4
		c0-2.6,4.2-3.3,6.7-3.3c2.4,0,5.2,0.7,6.9,1.8c0.7,0.4,1.6,0.2,2-0.4l3.1-4.9c0.4-0.7,0.2-1.6-0.4-2c-2.3-1.5-5.4-2.6-8.5-3v-3
		c0-0.8-0.7-1.5-1.4-1.5h-5.8c-0.8,0-1.4,0.7-1.4,1.5v3.5c-6.1,1.6-9.8,5.9-9.8,11.3c0,9.6,8.2,12.1,13.7,13.7c5.9,1.8,7,2.6,7,4.8
		c0,2.4-4,3.1-6.4,3.1c-2.9,0-6.2-1.3-8-3.2c-0.3-0.3-0.6-0.4-1-0.5c-0.4,0-0.8,0.1-1,0.4l-4.2,4c-0.6,0.5-0.6,1.5-0.1,2
		c2.5,2.6,6,4.5,9.8,5.4v3.3c0,0.8,0.6,1.4,1.4,1.4h5.8c0.8,0,1.4-0.6,1.4-1.4v-3.1c6.7-1.3,11-5.6,11-11.4
		C64.6,50.1,56.6,47.7,51.4,46.1z"/>
</g>
</svg>
