<?xml version="1.0" encoding="utf-8"?>
<!-- Generator: Adobe Illustrator 21.0.0, SVG Export Plug-In . SVG Version: 6.00 Build 0)  -->
<svg version="1.1" id="Grassland" xmlns="http://www.w3.org/2000/svg" xmlns:xlink="http://www.w3.org/1999/xlink"
	 x="0px" y="0px"
	 width="200px"
	 height="31.8px"
	 viewBox="0 0 200 31.8" enable-background="new 0 0 200 31.8" xml:space="preserve">
<g id="Grassland.svg">
	<rect fill="#AABA21" width="200" height="7"/>
	<path fill="#631914" d="M200,7H0v12.4c0,6.8,5.5,12.3,12.3,12.3h175.3c6.8,0,12.3-5.5,12.3-12.3V7z"/>
	<circle fill="#963A26" cx="10.5" cy="13.3" r="3.7"/>
	<circle fill="#963A26" cx="29.5" cy="22.1" r="2.7"/>
	<circle fill="#963A26" cx="39.8" cy="17.6" r="2.7"/>
	<circle fill="#963A26" cx="66.5" cy="21.3" r="1.9"/>
	<circle fill="#963A26" cx="82.2" cy="17.6" r="2.7"/>
	<circle fill="#963A26" cx="102.7" cy="17.3" r="2.5"/>
	<circle fill="#963A26" cx="98.6" cy="26.4" r="1.7"/>
	<circle fill="#963A26" cx="123.4" cy="13.3" r="3.3"/>
	<circle fill="#963A26" cx="147" cy="18.5" r="3.6"/>
	<circle fill="#963A26" cx="137.3" cy="23.8" r="2.6"/>
	<circle fill="#963A26" cx="165.1" cy="14.4" r="3.2"/>
	<circle fill="#963A26" cx="181.5" cy="24.6" r="2.5"/>
	<circle fill="#963A26" cx="189.6" cy="15.9" r="2.6"/>
</g>
</svg>
