<?xml version="1.0" encoding="utf-8"?>
<!-- Generator: Adobe Illustrator 21.0.0, SVG Export Plug-In . SVG Version: 6.00 Build 0)  -->
<svg version="1.1" id="Left" xmlns="http://www.w3.org/2000/svg" xmlns:xlink="http://www.w3.org/1999/xlink" x="0px" y="0px"
	 width="80px"
	 height="80px"
	 viewBox="0 0 80 80" style="enable-background:new 0 0 80 80;" xml:space="preserve">
<style type="text/css">
	.st0{fill:#9E89BF;}
	.st1{fill:#FFFFFF;}
</style>
<g id="Left.svg">
	<g>
		<circle fill="#9E89BF" cx="40" cy="40" r="40"/>
		<path fill="#FFFFFF" d="M16.9,40.1c-0.1,1.6,0.7,3.3,1.9,4.5L31,56.8c2.3,2.3,5.5,2.5,7.8,0.2c2.3-2.3,2.2-5.5-0.8-8.6l-2.7-2.7
			l23.1,0c3.4,0,6.2-2.4,6.2-5.8c0-3.4-2.8-5.8-6.2-5.8H35.2l3.6-3.2c2.8-2.9,2.5-5.8,0.1-8.2c-2.3-2.3-5.8-1.8-8.1,0.5L18.7,35.3
			c-1.2,1.2-1.9,2.7-1.8,4.3C16.9,39.7,16.9,40,16.9,40.1z"/>
	</g>
</g>
</svg>
