<?xml version="1.0" encoding="utf-8"?>
<!-- Generator: Adobe Illustrator 21.0.0, SVG Export Plug-In . SVG Version: 6.00 Build 0)  -->
<svg version="1.1" id="Layer_1" xmlns="http://www.w3.org/2000/svg" xmlns:xlink="http://www.w3.org/1999/xlink" 
	width="192px" height="192px" x="0px" y="0px"
	 viewBox="0 0 192 192" xml:space="preserve">
<g id="Cat.svg">
	<g>
		<g>
			<path fill="#E5C8C4" d="M49.4,129.5c-7.6,0.8-15.1,3.8-20.9,8.8c-9.7,8.3-10.6,22.9-2.4,32.4c9.6,11,26.7,11.5,39.9,8.8
				c9-1.9,17.5-5.7,26.3-8.4c3.8-1.2,7.9-2.1,11.8-1.5c2,0.3,4.1,1.4,4.8,3.4c1,2.9-4.8,3.4-6,3.4c-2.9,0.2-2.9,4.7,0,4.5
				c4.4-0.3,9.2-1.5,10.5-6.3c1.2-4.5-3.2-7.7-6.7-9.1c-6.2-2.4-14.4,0.6-20.2,2.6c-9.5,3.2-18.8,6.9-28.8,8.1
				c-15.6,1.8-37-7.2-31.7-26.1c2.7-9.7,14.1-15.3,23.5-16.2C52.2,133.7,52.3,129.2,49.4,129.5L49.4,129.5z"/>
		</g>
		<g>
			<path fill="#9CB3B8" d="M73.8,149.9c0,0-10,0.9-9.8,7c0,0,1.4,2,7.4,2.2c6,0.2,12.7-0.1,14.1-8.1L73.8,149.9z"/>
			<path fill="#9CB3B8" d="M123.6,149.9c0,0,10,0.9,9.8,7c0,0-1.4,2-7.4,2.2c-6,0.2-12.7-0.1-14.1-8.1L123.6,149.9z"/>
		</g>
		<g>
			<g>
				<path fill="#9CB3B8" d="M152.8,26.5c-6.2-4.3-21.5-11.9-32.3,3.4c-10.8,15.3,2.2,32.5,2.2,32.5l3.2,2.3l3.2,2.3
					c0,0,20.6,6.4,31.4-8.9C171.2,42.8,159,30.8,152.8,26.5z"/>
				<path fill="#E5C8C4" d="M148.6,32.4c-5.2-3.7-18.2-10-27.3,2.9c-9.1,12.9,1.8,27.5,1.8,27.5l2.7,1.9l2.7,1.9
					c0,0,17.4,5.4,26.5-7.5C164.2,46.2,153.8,36.1,148.6,32.4z"/>
			</g>
			<g>
				<path fill="#9CB3B8" d="M43.1,26.5c6.2-4.3,21.5-11.9,32.3,3.4c10.8,15.3-2.2,32.5-2.2,32.5L70,64.7L66.8,67
					c0,0-20.6,6.4-31.4-8.9C24.7,42.8,36.9,30.8,43.1,26.5z"/>
				<path fill="#E5C8C4" d="M47.2,32.4c5.2-3.7,18.2-10,27.3,2.9c9.1,12.9-1.8,27.5-1.8,27.5L70,64.7l-2.7,1.9
					c0,0-17.4,5.4-26.5-7.5C31.7,46.2,42,36.1,47.2,32.4z"/>
			</g>
		</g>
		<path fill="#9CB3B8" d="M138.8,69.1c-13.3-20.5-40.7-19.6-40.7-19.6l0,0l0,0l0,0l0,0c0,0-27.5-0.9-40.7,19.6
			C44.1,89.6,40.9,124.3,47.2,137c6.3,12.6,20.5,16.7,50.8,16.7l0,0l0,0l0,0l0,0c30.3,0,44.5-4.1,50.8-16.7
			C155.2,124.3,152.1,89.6,138.8,69.1z"/>
		<path fill="#AAC2C8" d="M98.1,153.7c19,0,31.6-1.6,40-5.9c0.2-0.9,0.3-1.8,0.3-2.8c0-13.7-18-24.7-40.3-24.7
			c-22.2,0-40.3,11.1-40.3,24.7c0,0.9,0.1,1.9,0.3,2.8C66.4,152.1,79.1,153.7,98.1,153.7L98.1,153.7z"/>
		<g>
			<g>
				<circle fill="#5F7175" cx="122.5" cy="82" r="3.8"/>
				<circle fill="#5F7175" cx="73.8" cy="82" r="3.8"/>
			</g>
			<path fill="#5F7175" d="M98.1,87.4c0,0-3.6,0-3.8,0.8c-0.3,0.8,2,3.6,3.8,3.6c1.8,0,4.1-2.8,3.9-3.6
				C101.6,87.4,98.1,87.4,98.1,87.4z"/>
			<path fill="#5F7175" d="M109.1,89.4c-1.8,4.7-6,7.7-11,7.9c0,0,0,0,0,0c0,0,0,0,0,0c-5-0.1-9.3-3.1-11.1-7.9
				c-0.3-0.9-1.8-0.5-1.5,0.4c2,5.4,6.8,8.8,12.5,9c0,0,0,0,0,0c0,0,0,0,0,0c5.7-0.2,10.5-3.6,12.5-9
				C110.9,88.8,109.5,88.5,109.1,89.4z"/>
		</g>
		<g>
			<g>
				<g>
					<path fill="#5F7175" d="M142.2,89c3.8,0,7.6,0,11.4,0c1,0,1-1.5,0-1.5c-3.8,0-7.6,0-11.4,0C141.2,87.5,141.2,89,142.2,89
						L142.2,89z"/>
				</g>
				<g>
					<g>
						<path fill="#5F7175" d="M142.7,84.8c3.6-1.1,7.3-2.2,10.9-3.4c0.9-0.3,0.5-1.7-0.4-1.4c-3.6,1.1-7.3,2.2-10.9,3.4
							C141.3,83.6,141.8,85.1,142.7,84.8L142.7,84.8z"/>
					</g>
					<g>
						<path fill="#5F7175" d="M142.7,91.7c3.6,1.1,7.3,2.2,10.9,3.4c0.9,0.3,0.5,1.7-0.4,1.4c-3.6-1.1-7.3-2.2-10.9-3.4
							C141.3,92.8,141.8,91.4,142.7,91.7L142.7,91.7z"/>
					</g>
				</g>
			</g>
			<g>
				<g>
					<path fill="#5F7175" d="M54.9,89c-3.8,0-7.6,0-11.4,0c-1,0-1-1.5,0-1.5c3.8,0,7.6,0,11.4,0C55.9,87.5,55.9,89,54.9,89L54.9,89z
						"/>
				</g>
				<g>
					<g>
						<path fill="#5F7175" d="M54.5,84.8c-3.6-1.1-7.3-2.2-10.9-3.4C42.6,81.1,43,79.7,44,80c3.6,1.1,7.3,2.2,10.9,3.4
							C55.8,83.6,55.4,85.1,54.5,84.8L54.5,84.8z"/>
					</g>
					<g>
						<path fill="#5F7175" d="M54.5,91.7c-3.6,1.1-7.3,2.2-10.9,3.4c-0.9,0.3-0.5,1.7,0.4,1.4c3.6-1.1,7.3-2.2,10.9-3.4
							C55.8,92.8,55.4,91.4,54.5,91.7L54.5,91.7z"/>
					</g>
				</g>
			</g>
		</g>
		<g>
			<path fill="#9CB3B8" d="M123,114.6c-4.6,6.2-13.7,19.3-9.7,23.5c3.7,4,15.2-4,21.5-9C132.9,123.5,128.7,118.4,123,114.6z"/>
			<path fill="#9CB3B8" d="M72.5,114.6c4.6,6.2,13.6,19.3,9.7,23.5c-3.7,4-15.2-4-21.5-9C62.7,123.5,66.8,118.4,72.5,114.6z"/>
		</g>
		<g opacity="0.7">
			<ellipse fill="#E5C8C4" cx="66.4" cy="92.9" rx="7.7" ry="5.2"/>
			<ellipse fill="#E5C8C4" cx="129.7" cy="92.9" rx="7.7" ry="5.2"/>
		</g>
	</g>
	<g>
		<path fill="#C32F23" d="M68.5,54.5c0,0,10.5-22.6,29.8-22.6c19.3,0,28.2,22.2,28.2,22.2S104.6,50.9,68.5,54.5z"/>
		<path fill="#D8564F" d="M63.6,61.6c0,0-0.5-15.5,34.4-15.5s35.3,15.5,35.3,15.5S100.8,48.4,63.6,61.6z"/>
		<path fill="#D8564F" d="M108.5,29.9c1.1,0,2-0.9,2-1.9c0-1.1-0.9-1.9-2-1.9h-0.6c0-0.1,0-0.2-0.1-0.3l0.6-0.2c1-0.4,1.5-1.6,1-2.6
			c-0.4-1-1.6-1.5-2.6-1l-0.6,0.2c0,0-0.1-0.1-0.1-0.1l0.4-0.4c0.8-0.8,0.8-2,0-2.8c-0.8-0.8-2-0.8-2.8,0l-0.4,0.4
			c-0.1-0.1-0.2-0.1-0.3-0.2l0.2-0.6c0.4-1-0.1-2.1-1.1-2.5c-1-0.4-2.1,0.1-2.5,1.1l-0.2,0.6c0,0-0.1,0-0.1,0V17c0-1.1-0.9-2-1.9-2
			c-1.1,0-1.9,0.9-1.9,2v0.6c-0.1,0-0.2,0-0.3,0.1L95,17.1c-0.4-1-1.6-1.5-2.6-1c-1,0.4-1.5,1.6-1,2.6l0.2,0.6c0,0-0.1,0.1-0.1,0.1
			l-0.4-0.4c-0.8-0.8-2-0.8-2.8,0c-0.8,0.8-0.8,2,0,2.8l0.4,0.4c-0.1,0.1-0.1,0.2-0.2,0.3L88,22c-1-0.4-2.1,0.1-2.5,1.1
			c-0.4,1,0.1,2.1,1.1,2.5l0.6,0.2c0,0,0,0.1,0,0.1h-0.6c-1.1,0-2,0.9-2,1.9c0,1.1,0.9,1.9,2,1.9h0.6c0,0.1,0,0.2,0.1,0.3l-0.6,0.3
			c-1,0.4-1.5,1.6-1,2.6c0.4,1,1.6,1.4,2.6,1l0.6-0.2c0,0,0.1,0.1,0.1,0.1l-0.4,0.4c-0.8,0.8-0.8,2,0,2.8c0.8,0.8,2,0.8,2.8,0
			l0.4-0.4c0.1,0.1,0.2,0.1,0.3,0.2l-0.2,0.6c-0.4,1,0.1,2.1,1.1,2.5c1,0.4,2.1-0.1,2.5-1.1l0.2-0.6c0,0,0.1,0,0.1,0V39
			c0,1.1,0.9,1.9,1.9,1.9c1.1,0,1.9-0.9,1.9-1.9v-0.6c0.1,0,0.2,0,0.3-0.1l0.2,0.6c0.4,1,1.6,1.5,2.6,1c1-0.4,1.5-1.6,1-2.6
			l-0.2-0.6c0,0,0.1-0.1,0.1-0.1l0.4,0.4c0.8,0.8,2,0.8,2.8,0c0.8-0.8,0.8-2,0-2.8l-0.4-0.4c0.1-0.1,0.1-0.2,0.2-0.3l0.6,0.2
			c1,0.4,2.1-0.1,2.5-1.1c0.4-1-0.1-2.1-1.1-2.5l-0.6-0.2c0,0,0-0.1,0-0.1H108.5z"/>
	</g>
</g>
</svg>
