<?xml version="1.0" encoding="utf-8"?>
<!-- Generator: Adobe Illustrator 21.0.0, SVG Export Plug-In . SVG Version: 6.00 Build 0)  -->
<svg version="1.1" id="Plane_1" xmlns="http://www.w3.org/2000/svg" xmlns:xlink="http://www.w3.org/1999/xlink" 
	 x="0px"
	 y="0px"
	 width="200px"
	 height="200px" 
	 viewBox="0 0 200 200" enable-background="new 0 0 200 200" xml:space="preserve">
<g id="Plane1.svg">
	<g>
		<g>
			<path fill="#474749" d="M140.2,70.9h-7.9V50.2c0-0.8,0.4-1.5,1-2l3-2.3l3,2.3c0.6,0.5,1,1.2,1,2V70.9z"/>
			<path fill="#302E2F" d="M140.2,70.9h-4v-25l3,2.3c0.6,0.5,1,1.2,1,2V70.9z"/>
			<rect x="132.3" y="51.8" fill="#F1F1F2" width="7.9" height="1.3"/>
			<rect x="136.2" y="51.8" fill="#D0D2D3" width="4" height="1.3"/>
		</g>
		<g>
			<path fill="#474749" d="M68.8,70.9h-7.9V50.2c0-0.8,0.4-1.5,1-2l3-2.3l3,2.3c0.6,0.5,1,1.2,1,2V70.9z"/>
			<path fill="#302E2F" d="M68.8,70.9h-4v-25l3,2.3c0.6,0.5,1,1.2,1,2V70.9z"/>
			<rect x="60.9" y="51.8" fill="#F1F1F2" width="7.9" height="1.3"/>
			<rect x="64.8" y="51.8" fill="#D0D2D3" width="4" height="1.3"/>
		</g>
	</g>
	<g>
		<path fill="#474749" d="M172.8,61.5h-3.2v-9c0-0.9,0.7-1.6,1.6-1.6l0,0c0.9,0,1.6,0.7,1.6,1.6V61.5z"/>
		<path fill="#474749" d="M31.5,61.5h-3.2v-9c0-0.9,0.7-1.6,1.6-1.6l0,0c0.9,0,1.6,0.7,1.6,1.6V61.5z"/>
	</g>
	<g>
		<path fill="#C3996B" d="M187.2,82.9l-86.6,14.9L13.8,82.6C8,81.2,3.8,76.2,3.5,70.3l0,0c-0.4-7.6,5.7-14.1,13.4-14.1H184
			c7.2,0,13.2,5.7,13.5,12.9l0,0C197.9,75.6,193.5,81.4,187.2,82.9z"/>
		<g>
			<rect x="84.2" y="30.8" fill="#474749" width="32.8" height="20.6"/>
			<rect x="109.3" y="30.8" fill="#3E3D3F" width="7.6" height="20.6"/>
			<rect x="101.5" y="30.8" fill="#3E3D3F" width="3.8" height="20.6"/>
		</g>
		<path fill="#C3996B" d="M131.4,186.9h-30.9H69.7c-5.1,0-9.3-4.2-9.3-9.3l0,0c0-4,2.6-7.6,6.4-8.8l33.7-10.9l33.7,10.9
			c3.8,1.2,6.4,4.8,6.4,8.8l0,0C140.7,182.7,136.5,186.9,131.4,186.9z"/>
		<polygon fill="#B98657" points="118.9,46.5 82.1,46.5 81,51.4 92.5,186.9 108.6,186.9 120.1,51.4 		"/>
		<polygon fill="#9C7349" points="118.9,46.5 100.5,46.5 100.5,186.9 108.6,186.9 120.1,51.4 		"/>
		<polygon fill="#58595B" points="118.9,46.5 82.1,46.5 81,51.4 120.1,51.4 		"/>
		<polygon fill="#6C6E70" points="104.2,30.8 96.9,30.8 96.9,21.9 100.5,18 104.2,21.9 		"/>
		<path fill="#F1F1F2" d="M106.6,108l-3.4,5.1c-1.3,1.9-4.1,1.9-5.4,0l-3.4-5.1c-1.9-2.8-2.9-6.2-2.9-9.6V65.5c0-0.5,0.3-1,0.7-1.3
			l7.5-4.4c0.5-0.3,1.1-0.3,1.6,0l7.5,4.4c0.5,0.3,0.7,0.8,0.7,1.3v32.9C109.5,101.8,108.5,105.2,106.6,108z"/>
		<path fill="#D0D2D3" d="M106.6,108l-3.4,5.1c-0.6,1-1.7,1.5-2.7,1.5l0-55c0.3,0,0.5,0.1,0.8,0.2l7.5,4.4c0.5,0.3,0.7,0.8,0.7,1.3
			v32.9C109.5,101.8,108.5,105.2,106.6,108z"/>
		<g>
			<path fill="#AC885F" d="M75.5,69.8l-72,0.4c0.3,6,4.5,11,10.3,12.3l61.7,10.8V69.8z"/>
			<path fill="#A07F58" d="M75.5,69.8l-72,0.4c0.1,1.2,0.3,2.4,0.7,3.5l71.2,4L75.5,69.8z"/>
			<path fill="#AC885F" d="M197.5,69.1l-72,0.4v24l61.6-10.6C193.5,81.4,197.9,75.6,197.5,69.1z"/>
			<path fill="#A07F58" d="M197.5,69.1l-72,0.4l0,8.4l69.3,0C196.7,75.4,197.7,72.3,197.5,69.1z"/>
		</g>
		<g>
			<g>
				<path fill="#F1F1F2" d="M86.8,52.6c-0.4,0-0.8-0.4-0.8-0.8V46c0-0.4,0.4-0.8,0.8-0.8c0.4,0,0.8,0.4,0.8,0.8v5.8
					C87.6,52.3,87.2,52.6,86.8,52.6z"/>
			</g>
			<g>
				<path fill="#F1F1F2" d="M91.1,52.5c-0.4,0-0.8-0.4-0.8-0.8v-5.8c0-0.4,0.4-0.8,0.8-0.8c0.4,0,0.8,0.4,0.8,0.8v5.8
					C91.9,52.2,91.5,52.5,91.1,52.5z"/>
			</g>
		</g>
		<g>
			<g>
				<path fill="#F1F1F2" d="M110,52.6c-0.4,0-0.8-0.4-0.8-0.8V46c0-0.4,0.4-0.8,0.8-0.8c0.4,0,0.8,0.4,0.8,0.8v5.8
					C110.8,52.3,110.5,52.6,110,52.6z"/>
			</g>
			<g>
				<path fill="#F1F1F2" d="M114.3,52.5c-0.4,0-0.8-0.4-0.8-0.8v-5.8c0-0.4,0.4-0.8,0.8-0.8c0.4,0,0.8,0.4,0.8,0.8v5.8
					C115.1,52.2,114.8,52.5,114.3,52.5z"/>
			</g>
		</g>
		<path fill="#A6A8AB" d="M100.9,75.3c-5.4,0-9.5-2.1-9.5-2.2l0.4-0.7c0.1,0,8.9,4.6,17.6,0l0.4,0.7
			C106.7,74.7,103.6,75.3,100.9,75.3z"/>
		<path fill="#A6A8AB" d="M100.9,95.9c-5.4,0-9.5-2.1-9.5-2.2l0.4-0.7c0.1,0,8.9,4.6,17.6,0l0.4,0.7
			C106.7,95.4,103.6,95.9,100.9,95.9z"/>
		<path fill="#C3996B" d="M126,27.2H75.1c-0.8,0-1.4-0.6-1.4-1.4l0,0c0-0.8,0.6-1.4,1.4-1.4H126c0.8,0,1.4,0.6,1.4,1.4l0,0
			C127.4,26.6,126.8,27.2,126,27.2z"/>
	</g>
	<g>
		<g>
			<circle fill="#BE1D2C" cx="155.3" cy="73.5" r="8.6"/>
			<path fill="#FFFFFF" d="M155.3,82.6c-5,0-9.1-4.1-9.1-9.1c0-5,4.1-9.1,9.1-9.1c5,0,9.1,4.1,9.1,9.1
				C164.4,78.5,160.3,82.6,155.3,82.6z M155.3,65.4c-4.4,0-8,3.6-8,8c0,4.4,3.6,8,8,8c4.4,0,8-3.6,8-8
				C163.3,69,159.7,65.4,155.3,65.4z"/>
		</g>
		<g>
			<circle fill="#BE1D2C" cx="45.8" cy="73.5" r="8.6"/>
			<path fill="#FFFFFF" d="M45.8,82.6c-5,0-9.1-4.1-9.1-9.1c0-5,4.1-9.1,9.1-9.1s9.1,4.1,9.1,9.1C54.9,78.5,50.8,82.6,45.8,82.6z
				 M45.8,65.4c-4.4,0-8,3.6-8,8c0,4.4,3.6,8,8,8s8-3.6,8-8C53.8,69,50.2,65.4,45.8,65.4z"/>
		</g>
	</g>
</g>
</svg>
