<?xml version="1.0" encoding="utf-8"?>
<!-- Generator: Adobe Illustrator 21.0.0, SVG Export Plug-In . SVG Version: 6.00 Build 0)  -->
<svg version="1.1" id="Right" xmlns="http://www.w3.org/2000/svg" xmlns:xlink="http://www.w3.org/1999/xlink" x="0px" y="0px"
	 width="80px"
	 height="80px"
	 viewBox="0 0 80 80" style="enable-background:new 0 0 80 80;" xml:space="preserve">
<style type="text/css">
	.st0{fill:#9E89BF;}
	.st1{fill:#FFFFFF;}
</style>
<g id="Right.svg">
	<g>
		<circle fill="#9E89BF" cx="40" cy="40" r="40"/>
		<path fill="#FFFFFF" d="M63.1,39.9c0.1-1.6-0.7-3.3-1.9-4.5L49,23.3c-2.3-2.3-5.5-2.5-7.8-0.2c-2.3,2.3-2.2,5.5,0.8,8.6l2.7,2.7
			l-23.1,0c-3.4,0-6.2,2.4-6.2,5.8s2.8,5.8,6.2,5.8h23.1l-3.6,3.2c-2.8,2.9-2.5,5.8-0.1,8.1c2.3,2.3,5.8,1.8,8.1-0.5l12.1-12.1
			c1.2-1.2,1.9-2.7,1.8-4.3C63.1,40.3,63.1,40,63.1,39.9z"/>
	</g>
</g>
</svg>
