<?xml version="1.0" encoding="utf-8"?>
<!-- Generator: Adobe Illustrator 21.0.0, SVG Export Plug-In . SVG Version: 6.00 Build 0)  -->
<svg version="1.1" id="Up" xmlns="http://www.w3.org/2000/svg" xmlns:xlink="http://www.w3.org/1999/xlink" x="0px" y="0px"
	 width="80px"
	 height="80px"
	 viewBox="0 0 80 80" style="enable-background:new 0 0 80 80;" xml:space="preserve">
<g id="Up.svg">
	<g>
		<circle fill="#9E89BF" cx="40.2" cy="40.2" r="39.8"/>
		<path fill="#FFFFFF" d="M40.1,17.3c-1.6-0.1-3.2,0.7-4.5,1.9l-12,12c-2.3,2.3-2.5,5.5-0.2,7.8c2.3,2.3,5.5,2.2,8.5-0.8l2.7-2.7l0,23
			c0,3.4,2.4,6.2,5.8,6.2c3.4,0,5.8-2.8,5.8-6.2v-23l3.2,3.5c2.9,2.8,5.8,2.4,8.1,0.1c2.3-2.3,1.8-5.7-0.5-8l-12-12
			c-1.2-1.2-2.7-1.9-4.3-1.8C40.5,17.3,40.2,17.3,40.1,17.3z"/>
	</g>
</g>
</svg>
