<?xml version="1.0" encoding="utf-8"?>
<!-- Generator: Adobe Illustrator 21.0.0, SVG Export Plug-In . SVG Version: 6.00 Build 0)  -->
<svg version="1.1" id="Victory_1" xmlns="http://www.w3.org/2000/svg" xmlns:xlink="http://www.w3.org/1999/xlink" 
	 x="0px" y="0px"
	 width="100px"
	 height="100px"
	 viewBox="0 0 100 100" enable-background="new 0 0 100 100" xml:space="preserve">
<g id="Victory.svg">
	<g>
		<circle fill="#F9D953" cx="50" cy="50" r="47.6"/>
		<path fill="#DDBF3E" d="M50,100C22.4,100,0,77.6,0,50C0,22.4,22.4,0,50,0s50,22.4,50,50C100,77.6,77.6,100,50,100z M50,4.8
			C25.1,4.8,4.8,25.1,4.8,50c0,24.9,20.3,45.2,45.2,45.2S95.2,74.9,95.2,50C95.2,25.1,74.9,4.8,50,4.8z"/>
	</g>
	<g>
		<g>
			<ellipse fill="#834700" cx="31.6" cy="40" rx="5" ry="8.2"/>
			<ellipse fill="#834700" cx="68.4" cy="40" rx="5" ry="8.2"/>
		</g>
		<path fill="#834700" d="M75.7,54.9c0,7.1-2.9,13.5-7.5,18.2c-1.7,1.7-3.7,3.3-5.9,4.4c-3.6,2-7.8,3.1-12.3,3.1s-8.6-1.1-12.3-3.1
			c-8-4.4-13.5-12.9-13.5-22.6H75.7z"/>
		<g>
			<path fill="#834700" d="M22.6,53.5c-1.3,1.3-1.3,3.5,0,4.9l4.9-4.9C26.1,52.2,23.9,52.2,22.6,53.5z"/>
			<path fill="#834700" d="M77.4,53.5c-1.3-1.3-3.5-1.3-4.9,0l4.9,4.9C78.8,57.1,78.8,54.9,77.4,53.5z"/>
		</g>
		<path fill="#F6F6F6" d="M64.4,65.6H35.6c-3.8,0-6.9-3.1-6.9-6.9v-2h42.6v2C71.3,62.5,68.2,65.6,64.4,65.6z"/>
		<path fill="#EE2A7B" d="M62.3,75.8c-3.6,2-7.8,3.1-12.3,3.1s-8.6-1.1-12.3-3.1c2.4-4.3,7-7.3,12.3-7.3S59.9,71.5,62.3,75.8z"/>
	</g>
</g>
</svg>
